<?xml version="1.0" standalone="no"?>
<!DOCTYPE svg PUBLIC "-//W3C//DTD SVG 1.1//EN" "http://www.w3.org/Graphics/SVG/1.1/DTD/svg11.dtd" >
<svg>
<metadata>
Created by FontForge 20090622 at Tue Aug 30 19:33:15 2016
 By deploy user
Copyright (c) Leonid Zorin, 2001. All rights reserved.
</metadata>
<defs>
<font id="Decorlz" horiz-adv-x="687" >
  <font-face 
    font-family="Decorlz"
    font-weight="400"
    font-stretch="normal"
    units-per-em="1000"
    panose-1="2 0 5 0 9 0 0 2 0 4"
    ascent="800"
    descent="-200"
    x-height="590"
    cap-height="621"
    bbox="8 -238 1091 833"
    underline-thickness="50"
    underline-position="-75"
    unicode-range="U+0020-U+201E"
  />
<missing-glyph horiz-adv-x="500" 
 />
    <glyph glyph-name=".notdef" horiz-adv-x="500" 
 />
    <glyph glyph-name=".null" horiz-adv-x="0" 
 />
    <glyph glyph-name="nonmarkingreturn" horiz-adv-x="500" 
 />
    <glyph glyph-name="space" unicode=" " horiz-adv-x="500" 
 />
    <glyph glyph-name="space" unicode="&#xa0;" horiz-adv-x="500" 
 />
    <glyph glyph-name="quotedblbase" unicode="&#x201e;" horiz-adv-x="500" 
 />
    <glyph glyph-name="FL0044h" unicode="D" horiz-adv-x="570" 
d="M239 -213q35 0 72 17.5t74 39l71 40t63 21.5q13 1 17.5 28.5t4.5 67.5q0 35 -2.5 74.5t-5.5 74.5t-5.5 60.5t-2.5 33.5q0 35 2 75t5.5 79t7 74t7.5 61t7.5 40t5.5 11q-29 -10 -60 -14.5t-62 -4.5q-45 0 -92 11q-26 6 -49.5 10t-49.5 4q-51 0 -94.5 -18.5t-75 -51
t-49.5 -76t-18 -93.5q0 -61 34 -111t87 -76q24 -9 53.5 -16.5t58.5 -7.5q24 0 46 6.5t39 23.5q9 -67 13.5 -105.5t6.5 -58.5t2.5 -26.5t0.5 -8.5q0 -31 -8.5 -58.5t-25.5 -48t-42.5 -32.5t-58.5 -12q-16 0 -40.5 8t-48 22t-40 32.5t-16.5 39.5l5 -2.5t13.5 -6t20.5 -6.5
t26 -3q11 0 22.5 2.5t23.5 8.5q23 14 32.5 38t9.5 50q0 24 -8 46t-23 39t-36 27.5t-46 10.5q-23 0 -41 -11t-30 -28.5t-18.5 -38.5t-6.5 -42q0 -45 18.5 -85t49.5 -69.5t71.5 -47t84.5 -17.5zM285 193q-22 0 -35 20t-19.5 47t-8 54.5t-1.5 42.5q0 22 3 54t13.5 62t29 51
t50.5 21q4 0 9.5 -0.5t11 -2t9.5 -5t4 -9.5q-14 -71 -21.5 -139t-7.5 -137q-2 -33 -12 -46t-25 -13z" />
    <glyph glyph-name="FL0064h" unicode="d" horiz-adv-x="570" 
d="M239 -213q35 0 72 17.5t74 39l71 40t63 21.5q13 1 17.5 28.5t4.5 67.5q0 35 -2.5 74.5t-5.5 74.5t-5.5 60.5t-2.5 33.5q0 35 2 75t5.5 79t7 74t7.5 61t7.5 40t5.5 11q-29 -10 -60 -14.5t-62 -4.5q-45 0 -92 11q-26 6 -49.5 10t-49.5 4q-51 0 -94.5 -18.5t-75 -51
t-49.5 -76t-18 -93.5q0 -61 34 -111t87 -76q24 -9 53.5 -16.5t58.5 -7.5q24 0 46 6.5t39 23.5q9 -67 13.5 -105.5t6.5 -58.5t2.5 -26.5t0.5 -8.5q0 -31 -8.5 -58.5t-25.5 -48t-42.5 -32.5t-58.5 -12q-16 0 -40.5 8t-48 22t-40 32.5t-16.5 39.5l5 -2.5t13.5 -6t20.5 -6.5
t26 -3q11 0 22.5 2.5t23.5 8.5q23 14 32.5 38t9.5 50q0 24 -8 46t-23 39t-36 27.5t-46 10.5q-23 0 -41 -11t-30 -28.5t-18.5 -38.5t-6.5 -42q0 -45 18.5 -85t49.5 -69.5t71.5 -47t84.5 -17.5zM285 193q-22 0 -35 20t-19.5 47t-8 54.5t-1.5 42.5q0 22 3 54t13.5 62t29 51
t50.5 21q4 0 9.5 -0.5t11 -2t9.5 -5t4 -9.5q-14 -71 -21.5 -139t-7.5 -137q-2 -33 -12 -46t-25 -13z" />
    <glyph glyph-name="FL0045h" unicode="E" horiz-adv-x="578" 
d="M10 281q0 -64 26 -116t70 -88.5t100.5 -56.5t118.5 -20q31 0 67.5 10.5t67 30.5t51 49.5t20.5 67.5q0 29 -18 52.5t-50 23.5q-29 0 -48.5 -21t-19.5 -50q0 -52 60 -52q2 -4 2 -12q0 -12 -8.5 -22t-20.5 -16.5t-26 -10.5t-25 -4q-42 0 -68.5 23t-42.5 57.5t-22 74t-6 71.5
q32 -10 66 -16.5t68 -6.5q32 0 66.5 9.5t63.5 28t47.5 46t18.5 63.5q0 46 -22.5 82t-57.5 61t-78 38t-85 13q-69 0 -127 -22t-100 -62t-65 -97.5t-23 -127.5zM237 315q-1 9 -1 17v16q0 19 1.5 37.5t6.5 41.5q2 10 9.5 32t19 43.5t25.5 38t29 16.5q17 0 26 -14.5t13.5 -34
t5 -39t0.5 -29.5q0 -20 -2.5 -44.5t-11 -47t-25 -37.5t-43.5 -15q-13 0 -29 4t-24 15z" />
    <glyph glyph-name="FL0065h" unicode="e" horiz-adv-x="578" 
d="M10 281q0 -64 26 -116t70 -88.5t100.5 -56.5t118.5 -20q31 0 67.5 10.5t67 30.5t51 49.5t20.5 67.5q0 29 -18 52.5t-50 23.5q-29 0 -48.5 -21t-19.5 -50q0 -52 60 -52q2 -4 2 -12q0 -12 -8.5 -22t-20.5 -16.5t-26 -10.5t-25 -4q-42 0 -68.5 23t-42.5 57.5t-22 74t-6 71.5
q32 -10 66 -16.5t68 -6.5q32 0 66.5 9.5t63.5 28t47.5 46t18.5 63.5q0 46 -22.5 82t-57.5 61t-78 38t-85 13q-69 0 -127 -22t-100 -62t-65 -97.5t-23 -127.5zM237 315q-1 9 -1 17v16q0 19 1.5 37.5t6.5 41.5q2 10 9.5 32t19 43.5t25.5 38t29 16.5q17 0 26 -14.5t13.5 -34
t5 -39t0.5 -29.5q0 -20 -2.5 -44.5t-11 -47t-25 -37.5t-43.5 -15q-13 0 -29 4t-24 15z" />
    <glyph glyph-name="FL0043h" unicode="C" horiz-adv-x="576" 
d="M10 291q0 -63 24 -116.5t65 -92.5t96 -60.5t117 -21.5q46 0 89.5 8t78.5 25.5t58 45.5t28 69q0 25 -16.5 43t-45.5 18q-20 0 -30.5 -15t-10.5 -33q0 -17 9.5 -30.5t29.5 -13.5q-10 -32 -38 -47t-61 -15q-46 0 -78 24t-52.5 61t-29.5 79.5t-9 80.5q0 22 3 49.5t10.5 55
t20 52.5t31.5 43q33 30 73 30q15 0 29.5 -5t28.5 -17q-12 3 -22 3q-23 0 -42 -10.5t-33 -28t-22 -39.5t-8 -45q0 -21 8 -40.5t22 -33.5t33 -22.5t41 -8.5q26 0 47.5 11t36.5 29.5t23.5 42t8.5 47.5q0 44 -22 77.5t-55.5 55.5t-74.5 33t-78 11q-57 0 -108 -24t-90 -64
t-62 -92t-23 -108v-11z" />
    <glyph glyph-name="FL0063h" unicode="c" horiz-adv-x="576" 
d="M10 291q0 -63 24 -116.5t65 -92.5t96 -60.5t117 -21.5q46 0 89.5 8t78.5 25.5t58 45.5t28 69q0 25 -16.5 43t-45.5 18q-20 0 -30.5 -15t-10.5 -33q0 -17 9.5 -30.5t29.5 -13.5q-10 -32 -38 -47t-61 -15q-46 0 -78 24t-52.5 61t-29.5 79.5t-9 80.5q0 22 3 49.5t10.5 55
t20 52.5t31.5 43q33 30 73 30q15 0 29.5 -5t28.5 -17q-12 3 -22 3q-23 0 -42 -10.5t-33 -28t-22 -39.5t-8 -45q0 -21 8 -40.5t22 -33.5t33 -22.5t41 -8.5q26 0 47.5 11t36.5 29.5t23.5 42t8.5 47.5q0 44 -22 77.5t-55.5 55.5t-74.5 33t-78 11q-57 0 -108 -24t-90 -64
t-62 -92t-23 -108v-11z" />
    <glyph glyph-name="FL004Fh" unicode="O" 
d="M341 0q64 0 125 18.5t107.5 56t75 93.5t28.5 130q0 76 -28.5 131t-75.5 91t-107.5 53t-124.5 17q-65 0 -124.5 -17t-105.5 -53t-73 -91t-27 -131q0 -72 27 -127.5t73 -93.5t105.5 -57.5t124.5 -19.5zM341 555q21 0 37.5 -23t27 -60t16 -84t5.5 -96q0 -48 -5.5 -94.5
t-16 -83t-26 -58.5t-36.5 -22q-22 0 -38 22.5t-26.5 59t-16 83.5t-5.5 96t5 95.5t15.5 83t26.5 59t37 22.5z" />
    <glyph glyph-name="FL006Fh" unicode="o" 
d="M341 0q64 0 125 18.5t107.5 56t75 93.5t28.5 130q0 76 -28.5 131t-75.5 91t-107.5 53t-124.5 17q-65 0 -124.5 -17t-105.5 -53t-73 -91t-27 -131q0 -72 27 -127.5t73 -93.5t105.5 -57.5t124.5 -19.5zM341 555q21 0 37.5 -23t27 -60t16 -84t5.5 -96q0 -48 -5.5 -94.5
t-16 -83t-26 -58.5t-36.5 -22q-22 0 -38 22.5t-26.5 59t-16 83.5t-5.5 96t5 95.5t15.5 83t26.5 59t37 22.5z" />
    <glyph glyph-name="FL0052h" unicode="R" horiz-adv-x="579" 
d="M11 -222q39 8 69.5 12t59.5 4q30 0 62.5 -4t77.5 -12q-7 34 -14 82t-13 98.5t-9.5 98t-3.5 81.5q30 -24 60.5 -36t69.5 -12q47 0 84 21t62.5 55t38.5 76.5t13 85.5t-12.5 86.5t-36.5 78.5t-60 59t-83 28q-20 0 -38.5 -6.5t-35.5 -16.5t-32.5 -23l-29.5 -25q0 3 -0.5 8.5
t-0.5 13.5q0 23 2.5 60t10 71.5t21.5 59.5t37 25q13 0 13 -6t-7 -16.5t-7 -25.5q1 -20 12.5 -28.5t26.5 -8.5q18 0 34.5 12t16.5 38q0 17 -7.5 29.5t-20 21t-27.5 12.5t-30 4q-49 0 -91.5 -25t-83.5 -55l-57.5 -40.5t-58.5 -30.5q14 -82 20 -166.5t6 -170.5q0 -130 -11 -259
t-27 -254zM229 331q0 27 3.5 58.5t12 57.5t22 43.5t33.5 17.5q15 0 27 -15t19.5 -40t11.5 -56.5t4 -64.5q0 -34 -4 -66t-11.5 -57.5t-19.5 -41t-27 -15.5q-20 0 -34 18.5t-22 45.5t-11.5 58t-3.5 57z" />
    <glyph glyph-name="FL0072h" unicode="r" horiz-adv-x="579" 
d="M11 -222q39 8 69.5 12t59.5 4q30 0 62.5 -4t77.5 -12q-7 34 -14 82t-13 98.5t-9.5 98t-3.5 81.5q30 -24 60.5 -36t69.5 -12q47 0 84 21t62.5 55t38.5 76.5t13 85.5t-12.5 86.5t-36.5 78.5t-60 59t-83 28q-20 0 -38.5 -6.5t-35.5 -16.5t-32.5 -23l-29.5 -25q0 3 -0.5 8.5
t-0.5 13.5q0 23 2.5 60t10 71.5t21.5 59.5t37 25q13 0 13 -6t-7 -16.5t-7 -25.5q1 -20 12.5 -28.5t26.5 -8.5q18 0 34.5 12t16.5 38q0 17 -7.5 29.5t-20 21t-27.5 12.5t-30 4q-49 0 -91.5 -25t-83.5 -55l-57.5 -40.5t-58.5 -30.5q14 -82 20 -166.5t6 -170.5q0 -130 -11 -259
t-27 -254zM229 331q0 27 3.5 58.5t12 57.5t22 43.5t33.5 17.5q15 0 27 -15t19.5 -40t11.5 -56.5t4 -64.5q0 -34 -4 -66t-11.5 -57.5t-19.5 -41t-27 -15.5q-20 0 -34 18.5t-22 45.5t-11.5 58t-3.5 57z" />
    <glyph glyph-name="FL004Ch" unicode="L" horiz-adv-x="653" 
d="M643 590q-82 -5 -146.5 -7.5t-127.5 -2.5q-34 0 -68 0.5t-71 2t-77.5 3.5t-86.5 4q75 -48 118 -123.5t56 -168.5q2 -14 3 -31t1 -36q0 -24 -3 -49.5t-10 -48.5t-19 -42t-30 -30q23 34 23 69q0 22 -8.5 38t-22 27t-30.5 16.5t-35 5.5q-25 0 -44 -9.5t-31.5 -25t-19 -35
t-6.5 -40.5q0 -51 31 -79t74 -28q48 0 88 25t71 63q33 40 56.5 92t39.5 106t23.5 105.5t7.5 91.5q11 -51 15 -109t4 -115q-1 -67 -6 -130.5t-21 -127.5q38 5 68.5 8t57.5 3q29 0 56.5 -3t60.5 -9q-5 78 -8 134.5t-3 110.5q0 34 1 70t3.5 77t6.5 89.5z" />
    <glyph glyph-name="FL006Ch" unicode="l" horiz-adv-x="653" 
d="M643 590q-82 -5 -146.5 -7.5t-127.5 -2.5q-34 0 -68 0.5t-71 2t-77.5 3.5t-86.5 4q75 -48 118 -123.5t56 -168.5q2 -14 3 -31t1 -36q0 -24 -3 -49.5t-10 -48.5t-19 -42t-30 -30q23 34 23 69q0 22 -8.5 38t-22 27t-30.5 16.5t-35 5.5q-25 0 -44 -9.5t-31.5 -25t-19 -35
t-6.5 -40.5q0 -51 31 -79t74 -28q48 0 88 25t71 63q33 40 56.5 92t39.5 106t23.5 105.5t7.5 91.5q11 -51 15 -109t4 -115q-1 -67 -6 -130.5t-21 -127.5q38 5 68.5 8t57.5 3q29 0 56.5 -3t60.5 -9q-5 78 -8 134.5t-3 110.5q0 34 1 70t3.5 77t6.5 89.5z" />
    <glyph glyph-name="FL005Ah" unicode="Z" horiz-adv-x="552" 
d="M325 310q36 4 71 13t62 26.5t43.5 43.5t16.5 64q0 46 -27.5 72.5t-66.5 40t-83 17t-77 3.5q-29 0 -67 -4.5t-72 -18t-57.5 -38t-23.5 -64.5q0 -19 8.5 -35.5t22 -28.5t31 -19t36.5 -7q18 0 36 6.5t33 18t24 28t9 36.5q-6 34 -23 52.5t-57 24.5q22 7 47 7q45 0 76 -26.5
t31 -73.5q0 -27 -11 -49t-30 -37.5t-45 -24.5t-56 -9q-24 0 -48.5 4.5t-47.5 14.5q5 -12 7.5 -20.5t2.5 -16.5t-2.5 -16.5t-7.5 -22.5q36 15 79 15q30 0 59 -8t51.5 -24.5t36.5 -41.5t14 -59q0 -28 -11 -50.5t-29 -38.5t-41 -24.5t-48 -8.5q-39 0 -72 21q28 0 51 8
t39.5 20.5t25.5 29.5t9 37q0 17 -8 34.5t-23 31.5t-36.5 23t-49.5 9q-23 0 -43.5 -8.5t-37 -22.5t-26.5 -32t-10 -38q6 -49 31 -77.5t61 -43.5t79.5 -19t85.5 -4q37 0 85 4t90 19.5t71 46t29 82.5q0 41 -21 69t-53 46t-70 28t-73 15z" />
    <glyph glyph-name="FL007Ah" unicode="z" horiz-adv-x="552" 
d="M325 310q36 4 71 13t62 26.5t43.5 43.5t16.5 64q0 46 -27.5 72.5t-66.5 40t-83 17t-77 3.5q-29 0 -67 -4.5t-72 -18t-57.5 -38t-23.5 -64.5q0 -19 8.5 -35.5t22 -28.5t31 -19t36.5 -7q18 0 36 6.5t33 18t24 28t9 36.5q-6 34 -23 52.5t-57 24.5q22 7 47 7q45 0 76 -26.5
t31 -73.5q0 -27 -11 -49t-30 -37.5t-45 -24.5t-56 -9q-24 0 -48.5 4.5t-47.5 14.5q5 -12 7.5 -20.5t2.5 -16.5t-2.5 -16.5t-7.5 -22.5q36 15 79 15q30 0 59 -8t51.5 -24.5t36.5 -41.5t14 -59q0 -28 -11 -50.5t-29 -38.5t-41 -24.5t-48 -8.5q-39 0 -72 21q28 0 51 8
t39.5 20.5t25.5 29.5t9 37q0 17 -8 34.5t-23 31.5t-36.5 23t-49.5 9q-23 0 -43.5 -8.5t-37 -22.5t-26.5 -32t-10 -38q6 -49 31 -77.5t61 -43.5t79.5 -19t85.5 -4q37 0 85 4t90 19.5t71 46t29 82.5q0 41 -21 69t-53 46t-70 28t-73 15z" />
    <glyph glyph-name="FL00B8h" unicode="&#xb8;" horiz-adv-x="578" 
d="M10 281q0 -64 26 -116t70 -88.5t100.5 -56.5t118.5 -20q31 0 67.5 10.5t67 30.5t51 49.5t20.5 67.5q0 29 -18 52.5t-50 23.5q-29 0 -48.5 -21t-19.5 -50q0 -27 14.5 -39.5t39.5 -12.5q6 -3 7 -6t1 -6q0 -12 -8.5 -22t-20.5 -16.5t-26 -10.5t-25 -4q-42 0 -68.5 23
t-42.5 57.5t-22 74t-6 71.5q32 -10 66 -16.5t68 -6.5q32 0 66.5 9.5t63.5 28t47.5 46t18.5 63.5q0 46 -22.5 82t-57.5 61t-78 38t-85 13q-69 0 -127 -22t-100 -62t-65 -97.5t-23 -127.5zM237 315q-1 9 -1 17v16q0 19 1.5 37.5t6.5 41.5q2 10 9.5 32t19 43.5t25.5 38t29 16.5
q17 0 26 -14.5t13.5 -34t5 -39t0.5 -29.5q0 -20 -3 -45t-11.5 -47t-24.5 -37t-43 -15q-13 0 -29 4t-24 15zM333 696q0 -32 19.5 -53t51.5 -21t52 22t20 53q0 32 -21.5 53t-53.5 21q-31 0 -49.5 -23t-18.5 -52zM173 696q0 -32 19.5 -53t51.5 -21t52 22t20 53q0 32 -21.5 53
t-53.5 21q-31 0 -49.5 -23t-18.5 -52z" />
    <glyph glyph-name="FL00A8h" unicode="&#xa8;" horiz-adv-x="578" 
d="M10 281q0 -64 26 -116t70 -88.5t100.5 -56.5t118.5 -20q31 0 67.5 10.5t67 30.5t51 49.5t20.5 67.5q0 29 -18 52.5t-50 23.5q-29 0 -48.5 -21t-19.5 -50q0 -27 14.5 -39.5t39.5 -12.5q6 -3 7 -6t1 -6q0 -12 -8.5 -22t-20.5 -16.5t-26 -10.5t-25 -4q-42 0 -68.5 23
t-42.5 57.5t-22 74t-6 71.5q32 -10 66 -16.5t68 -6.5q32 0 66.5 9.5t63.5 28t47.5 46t18.5 63.5q0 46 -22.5 82t-57.5 61t-78 38t-85 13q-69 0 -127 -22t-100 -62t-65 -97.5t-23 -127.5zM237 315q-1 9 -1 17v16q0 19 1.5 37.5t6.5 41.5q2 10 9.5 32t19 43.5t25.5 38t29 16.5
q17 0 26 -14.5t13.5 -34t5 -39t0.5 -29.5q0 -20 -3 -45t-11.5 -47t-24.5 -37t-43 -15q-13 0 -29 4t-24 15zM333 696q0 -32 19.5 -53t51.5 -21t52 22t20 53q0 32 -21.5 53t-53.5 21q-31 0 -49.5 -23t-18.5 -52zM173 696q0 -32 19.5 -53t51.5 -21t52 22t20 53q0 32 -21.5 53
t-53.5 21q-31 0 -49.5 -23t-18.5 -52z" />
    <glyph glyph-name="FL00C0h" unicode="&#xc0;" horiz-adv-x="523" 
d="M161 541q13 6 30 6q19 0 35.5 -7t27.5 -18q14 -14 22.5 -33t13 -40.5t6 -44t1.5 -42.5t-6 -27t-17 -7q-14 0 -33.5 7t-40.5 7q-37 0 -71.5 -14t-60.5 -38t-42 -57.5t-16 -72.5q0 -33 11.5 -62.5t32.5 -51t49.5 -34t62.5 -12.5q50 0 88.5 19t55.5 38q4 -7 4 -15
q0 -9 -2.5 -19t-4.5 -23q25 4 50 6.5t49 2.5q26 0 50.5 -2.5t50.5 -6.5l-11.5 48t-6.5 50t2.5 47.5l5 51.5l5 50t2.5 43q0 62 -14 117t-45.5 95.5t-81.5 64t-122 23.5q-30 0 -65 -9.5t-64 -28t-48.5 -45.5t-19.5 -62q0 -38 26.5 -59t61.5 -21q19 0 36 7t30 19t20.5 28.5
t7.5 35.5q0 34 -19 53t-46 33zM203 179q0 13 3 33t10 39t18.5 33t29.5 14q15 0 23.5 -10t13 -24t6 -29t1.5 -25q0 -11 -1.5 -31t-7.5 -39.5t-16.5 -34t-28.5 -14.5q-15 0 -25 9.5t-16 23t-8 28.5t-2 27z" />
    <glyph glyph-name="FL00C1h" unicode="&#xc1;" horiz-adv-x="614" 
d="M536 210q0 52 -22 93.5t-58.5 70t-83.5 43.5t-97 15q-37 0 -66 -6t-54.5 -17t-50 -27.5t-51.5 -38.5q-5 0 -7 5t-3.5 11.5t-1.5 12.5v11q0 20 8 37t22 29t31.5 18.5t37.5 6.5q45 0 98.5 -10t106.5 -10q22 0 42.5 2.5t39.5 10.5q37 13 66 48q-4 23 -5.5 36.5t-1.5 22.5
q0 13 3 21.5l8 23.5t8.5 34t3.5 37q0 26 -12.5 45.5t-49.5 19.5q-19 0 -33 -12.5t-14 -32.5q0 -14 11 -21t23 -7q9 0 15 4.5t10 10l7 10t7 4.5q8 0 11 -6.5t3 -12.5q0 -25 -21 -37t-43 -12q-26 0 -51 6t-49.5 12.5t-50 12.5t-51.5 6q-55 0 -98 -19.5t-72 -54.5
q-27 -34 -34.5 -71.5t-7.5 -77.5v-160q0 -39 0.5 -65.5t2 -44.5t5 -30t8.5 -23q15 -32 42 -57t61 -42t71.5 -26t75.5 -9q49 0 95.5 11.5t83.5 36.5t59.5 65t22.5 97zM275 36q-16 0 -27.5 14.5t-19 38.5t-11.5 55t-4 64q0 34 4 66.5t11.5 58t19.5 41.5t27 16q13 0 23.5 -15
t17 -39t10 -55t3.5 -64q0 -34 -3.5 -66.5t-10.5 -58t-17 -41t-23 -15.5z" />
    <glyph glyph-name="FL00C2h" unicode="&#xc2;" horiz-adv-x="557" 
d="M547 167q0 42 -13.5 67t-37.5 40t-56.5 23t-69.5 15l-27 5q34 9 62.5 21.5t49.5 30t33 41.5t12 57q0 30 -11 52.5t-30 38.5t-44.5 24t-53.5 8q-69 -3 -124.5 -6.5t-92.5 -3.5q-18 0 -32.5 1t-29 2.5t-31 3l-38.5 3.5q8 -32 12.5 -70.5t7 -80t3 -82t0.5 -74.5
q0 -71 -5.5 -142t-17.5 -141q33 5 64.5 7.5t64.5 2.5q39 0 82 -2.5t94 -7.5q41 0 82 7.5t73.5 26t53 51t20.5 82.5zM273 39q-9 0 -17 6t-14 15t-10.5 18.5t-5.5 17.5q-1 4 -2.5 16t-3 28.5t-3 35.5t-1.5 37q0 32 5.5 56.5t20.5 24.5q24 0 41 -18.5t28.5 -44.5t16.5 -53
t5 -45q0 -12 -3.5 -28t-11 -30.5t-19 -25t-26.5 -10.5zM285 544q23 0 34 -19.5t11 -40.5q0 -17 -4 -43.5t-15 -51.5t-29.5 -42.5t-46.5 -16.5q-8 0 -10.5 15.5t-2.5 33.5q0 11 0.5 21.5t1 17.5t1 8.5t-0.5 -4.5q0 13 2.5 33.5t9 40t18.5 34t31 14.5z" />
    <glyph glyph-name="FL00C3h" unicode="&#xc3;" horiz-adv-x="437" 
d="M18 165q0 -37 16 -67.5t42.5 -52t60 -33.5t67.5 -12q21 0 39.5 3.5t38 8t41 8t47.5 3.5q20 0 44 -3q-1 5 -3.5 32t-5.5 70q-2 29 -2 62t-3 71q-9 -30 -25.5 -67t-39 -70t-50 -55t-59.5 -22t-46.5 19t-14.5 44q0 24 13 47t38 31l70 44t68.5 50.5t52 62.5t20.5 80
q0 46 -20.5 78.5t-52.5 53t-73 30t-81 9.5q-26 0 -58.5 -5.5t-62 -18.5t-49.5 -34.5t-20 -53.5q0 -20 8 -34t21.5 -24t30.5 -14.5t35 -4.5q16 0 32.5 6t30 16.5t22 25t8.5 31.5q0 19 -8.5 31.5t-20.5 19.5t-25 11l-22 7q28 13 57 13q33 0 60 -16.5t29 -51.5q-6 -40 -27 -68
t-49 -50.5t-59.5 -42.5t-57 -43.5t-42 -53t-15.5 -71.5z" />
    <glyph glyph-name="FL00C4h" unicode="&#xc4;" horiz-adv-x="570" 
d="M239 -213q35 0 72 17.5t74 39l71 40t63 21.5q13 1 17.5 28.5t4.5 67.5q0 35 -2.5 74.5t-5.5 74.5t-5.5 60.5t-2.5 33.5q0 35 2 75t5.5 79t7 74t7.5 61t7.5 40t5.5 11q-29 -10 -60 -14.5t-62 -4.5q-45 0 -92 11q-26 6 -49.5 10t-49.5 4q-51 0 -94.5 -18.5t-75 -51
t-49.5 -76t-18 -93.5q0 -61 34 -111t87 -76q24 -9 53.5 -16.5t58.5 -7.5q24 0 46 6.5t39 23.5q9 -67 13.5 -105.5t6.5 -58.5t2.5 -26.5t0.5 -8.5q0 -31 -8.5 -58.5t-25.5 -48t-42.5 -32.5t-58.5 -12q-16 0 -40.5 8t-48 22t-40 32.5t-16.5 39.5l5 -2.5t13.5 -6t20.5 -6.5
t26 -3q11 0 22.5 2.5t23.5 8.5q23 14 32.5 38t9.5 50q0 24 -8 46t-23 39t-36 27.5t-46 10.5q-23 0 -41 -11t-30 -28.5t-18.5 -38.5t-6.5 -42q0 -45 18.5 -85t49.5 -69.5t71.5 -47t84.5 -17.5zM285 193q-22 0 -35 20t-19.5 47t-8 54.5t-1.5 42.5q0 22 3 54t13.5 62t29 51
t50.5 21q4 0 9.5 -0.5t11 -2t9.5 -5t4 -9.5q-14 -71 -21.5 -139t-7.5 -137q-2 -33 -12 -46t-25 -13z" />
    <glyph glyph-name="FL00C5h" unicode="&#xc5;" horiz-adv-x="578" 
d="M10 281q0 -64 26 -116t70 -88.5t100.5 -56.5t118.5 -20q31 0 67.5 10.5t67 30.5t51 49.5t20.5 67.5q0 29 -18 52.5t-50 23.5q-29 0 -48.5 -21t-19.5 -50q0 -52 60 -52q2 -4 2 -12q0 -12 -8.5 -22t-20.5 -16.5t-26 -10.5t-25 -4q-42 0 -68.5 23t-42.5 57.5t-22 74t-6 71.5
q32 -10 66 -16.5t68 -6.5q32 0 66.5 9.5t63.5 28t47.5 46t18.5 63.5q0 46 -22.5 82t-57.5 61t-78 38t-85 13q-69 0 -127 -22t-100 -62t-65 -97.5t-23 -127.5zM237 315q-1 9 -1 17v16q0 19 1.5 37.5t6.5 41.5q2 10 9.5 32t19 43.5t25.5 38t29 16.5q17 0 26 -14.5t13.5 -34
t5 -39t0.5 -29.5q0 -20 -2.5 -44.5t-11 -47t-25 -37.5t-43.5 -15q-13 0 -29 4t-24 15z" />
    <glyph glyph-name="FL00C6h" unicode="&#xc6;" horiz-adv-x="948" 
d="M291 328q-43 0 -83 -15t-76 -38q-34 -21 -57.5 -52.5t-38 -68t-21 -76t-6.5 -77.5q36 11 64.5 16t55.5 5t57 -5.5t69 -16.5q-5 25 -8.5 49.5t-3.5 47.5q0 48 17 88.5t61 66.5q9 5 18 9t17 4q18 0 26 -18v-22q0 -58 -10 -113.5t-27 -111.5q66 21 132 21q64 0 127 -21
q-11 57 -19 113.5t-8 113.5v22q6 14 22 14t30 -9q45 -26 62.5 -67t17.5 -89q0 -24 -4 -48.5t-9 -47.5q42 10 70.5 14.5t52.5 4.5q26 0 52.5 -5t64.5 -16q4 18 6 34.5t2 33.5q0 70 -31.5 123t-85.5 86q-37 23 -81 35t-93 12q-10 0 -19.5 -0.5t-19.5 -1.5q-1 5 -1.5 8.5
t-0.5 8.5q0 23 10 46t24 43q7 10 17.5 21t22 20t23 15t22.5 6q-12 -23 -12 -44q0 -18 7.5 -35t21 -30t32 -20.5t39.5 -7.5q45 0 66 30.5t21 69.5q0 22 -6 43.5t-18 39.5t-29 30t-38 14q-5 1 -10 1h-9q-45 0 -87.5 -22t-68.5 -54q-20 -24 -34 -53t-23 -60q4 67 11.5 135
t29.5 134q3 7 7.5 16t11.5 17t14.5 13.5t16.5 5.5q7 0 15 -6q-11 -5 -19.5 -13.5t-8.5 -19.5t7 -20t23 -9q21 0 32 14.5t11 34.5q0 22 -13.5 37t-33.5 23q-5 1 -9 1h-8q-21 0 -39 -8t-34.5 -19.5t-32 -24t-33.5 -22.5q-65 -34 -134 -34q-20 0 -41 3q0 1 -1 1v0v-1
q0 -5 4 -26t8.5 -55t8.5 -78.5t4 -95.5q-14 28 -24.5 58t-30.5 55q-23 31 -60 51.5t-75 20.5q-6 1 -12 1.5t-11 0.5q-27 0 -48 -11.5t-35.5 -29.5t-22 -41t-7.5 -46q0 -38 22 -67.5t72 -33.5q21 0 38 7.5t29.5 20.5t19 30t6.5 36q0 25 -12 49q26 -8 47.5 -30t35.5 -46
q14 -22 22 -46t8 -49z" />
    <glyph glyph-name="FL00C7h" unicode="&#xc7;" horiz-adv-x="552" 
d="M325 310q36 4 71 13t62 26.5t43.5 43.5t16.5 64q0 46 -27.5 72.5t-66.5 40t-83 17t-77 3.5q-29 0 -67 -4.5t-72 -18t-57.5 -38t-23.5 -64.5q0 -19 8.5 -35.5t22 -28.5t31 -19t36.5 -7q18 0 36 6.5t33 18t24 28t9 36.5q-6 34 -23 52.5t-57 24.5q22 7 47 7q45 0 76 -26.5
t31 -73.5q0 -27 -11 -49t-30 -37.5t-45 -24.5t-56 -9q-24 0 -48.5 4.5t-47.5 14.5q5 -12 7.5 -20.5t2.5 -16.5t-2.5 -16.5t-7.5 -22.5q36 15 79 15q30 0 59 -8t51.5 -24.5t36.5 -41.5t14 -59q0 -28 -11 -50.5t-29 -38.5t-41 -24.5t-48 -8.5q-39 0 -72 21q28 0 51 8
t39.5 20.5t25.5 29.5t9 37q0 17 -8 34.5t-23 31.5t-36.5 23t-49.5 9q-23 0 -43.5 -8.5t-37 -22.5t-26.5 -32t-10 -38q6 -49 31 -77.5t61 -43.5t79.5 -19t85.5 -4q37 0 85 4t90 19.5t71 46t29 82.5q0 41 -21 69t-53 46t-70 28t-73 15z" />
    <glyph glyph-name="FL00C8h" unicode="&#xc8;" horiz-adv-x="724" 
d="M367 180q8 -35 19.5 -67.5t30 -57.5t45 -40t63.5 -15q34 0 67 7t59.5 22.5t43 40t16.5 59.5q0 31 -15 55.5t-50 24.5q-22 0 -39.5 -15.5t-17.5 -38.5t15.5 -37t35.5 -14q8 0 16.5 2.5t16.5 9.5q0 -20 -10.5 -36t-33.5 -16q-26 0 -41 15.5t-22.5 38t-9 47t-1.5 42.5
q0 56 5.5 112t13.5 112q5 39 15 80t18 79q-33 -7 -65.5 -10.5t-66.5 -3.5q-33 0 -66 3.5t-67 10.5q5 -21 8 -46t5 -51.5t3 -51.5t1 -45q0 -31 -1.5 -69.5t-7.5 -72.5t-17.5 -57t-32.5 -23q-15 0 -25 9.5t-15.5 25t-8 35.5t-2.5 42q0 20 1.5 40t3.5 37.5t4 31l3 20.5l15 88
t24 87q-38 -7 -74.5 -10.5t-73.5 -3.5q-36 0 -71.5 3.5t-71.5 10.5q23 -40 30.5 -85.5t7.5 -93.5q-1 -56 -10 -110.5t-9 -108.5q0 -32 8.5 -66t25.5 -62t44 -46t65 -18t68 16.5t53.5 43t41.5 58.5t33 62z" />
    <glyph glyph-name="FL00C9h" unicode="&#xc9;" horiz-adv-x="724" 
d="M367 180q8 -35 19.5 -67.5t30 -57.5t45 -40t63.5 -15q34 0 67 7t59.5 22.5t43 40t16.5 59.5q0 31 -15 55.5t-50 24.5q-22 0 -39.5 -15.5t-17.5 -38.5t15.5 -37t35.5 -14q8 0 16.5 2.5t16.5 9.5q0 -20 -10.5 -36t-33.5 -16q-26 0 -41 15.5t-22.5 38t-9 47t-1.5 42.5
q0 56 5.5 112t13.5 112q5 39 15 80t18 79q-33 -7 -65.5 -10.5t-66.5 -3.5q-33 0 -66 3.5t-67 10.5q5 -21 8 -46t5 -51.5t3 -51.5t1 -45q0 -31 -1.5 -69.5t-7.5 -72.5t-17.5 -57t-32.5 -23q-15 0 -25 9.5t-15.5 25t-8 35.5t-2.5 42q0 20 1.5 40t3.5 37.5t4 31l3 20.5l15 88
t24 87q-36 -7 -72 -10.5t-72 -3.5q-71 0 -147 14q23 -40 30.5 -85.5t7.5 -93.5q-1 -56 -10 -110.5t-9 -108.5q0 -32 8.5 -66t25.5 -62t44 -46t65 -18t68 16.5t53.5 43t41.5 58.5t33 62zM218 807q-54 -2 -81.5 -24.5t-30.5 -51.5q0 -32 18 -55t48 -38t69 -22.5t81 -7.5h4
q47 1 93 10.5t82.5 27.5t59 45t22.5 62q0 40 -30.5 60t-74.5 20q-38 0 -71 -16t-43 -46q18 12 39 12q17 0 29.5 -10t12.5 -33q0 -27 -14 -44.5t-35 -27.5t-45.5 -14t-45.5 -4q-20 0 -39 1.5t-35 11.5q13 0 30 4t32.5 12t27 22t12.5 34q0 18 -8.5 31.5t-23 22.5t-33.5 13.5
t-40 4.5h-10z" />
    <glyph glyph-name="FL00CAh" unicode="&#xca;" horiz-adv-x="629" 
d="M268 328q1 19 13 49t31 58t41.5 48t44.5 20q-13 -22 -13 -50q0 -18 6 -35.5t17 -31t28 -21.5t38 -8q24 0 42.5 10.5t32 27.5t20.5 38.5t7 43.5q0 58 -34.5 85.5t-88.5 27.5q-44 0 -77.5 -19.5t-59 -50t-43.5 -67t-30 -70.5q-1 29 -3.5 63.5t-2.5 69.5q0 32 3.5 64t14 60
t29 51t48.5 38q-6 -14 -6 -24q0 -17 12.5 -26.5t27.5 -9.5q20 0 30 12t10 31q0 30 -14.5 45t-36.5 18q-5 1 -14 1q-21 0 -40.5 -8t-38.5 -19.5t-37.5 -24.5t-37.5 -23q-45 -29 -86.5 -39t-90.5 -14q16 -86 22.5 -172.5t6.5 -173.5q0 -77 -4 -152t-11 -150q36 7 67 10.5
t60 3.5q28 0 56.5 -3t60.5 -11l-18 114t-10 117q5 23 12.5 29.5t16.5 6.5q13 0 26 -6t22 -13q32 -29 42.5 -64t10.5 -74q0 -26 -3 -54l-6 -56q35 8 64 11t58 3q30 0 62 -3.5t71 -10.5q1 6 1 11v12q0 60 -20 117t-56 101t-86 71t-110 27q-19 0 -38 -2.5t-39 -8.5z" />
    <glyph glyph-name="FL00CBh" unicode="&#xcb;" horiz-adv-x="653" 
d="M643 590q-82 -5 -146.5 -7.5t-127.5 -2.5q-34 0 -68 0.5t-71 2t-77.5 3.5t-86.5 4q75 -48 118 -123.5t56 -168.5q2 -14 3 -31t1 -36q0 -24 -3 -49.5t-10 -48.5t-19 -42t-30 -30q23 34 23 69q0 22 -8.5 38t-22 27t-30.5 16.5t-35 5.5q-25 0 -44 -9.5t-31.5 -25t-19 -35
t-6.5 -40.5q0 -51 31 -79t74 -28q48 0 88 25t71 63q33 40 56.5 92t39.5 106t23.5 105.5t7.5 91.5q11 -51 15 -109t4 -115q-1 -67 -6 -130.5t-21 -127.5q38 5 68.5 8t57.5 3q29 0 56.5 -3t60.5 -9q-5 78 -8 134.5t-3 110.5q0 34 1 70t3.5 77t6.5 89.5z" />
    <glyph glyph-name="FL00CCh" unicode="&#xcc;" horiz-adv-x="840" 
d="M489 290l-21 91.5l-16.5 73l-14.5 65.5l-16 71q-44 -9 -76 -9q-31 0 -64 9q-29 5 -59 15.5t-61 15.5q-15 0 -30 -3.5t-27 -11t-20 -19.5t-8 -29q0 -21 12 -37.5t34 -16.5q20 0 32 13t12 33q0 3 -4 12.5t-4 15.5q0 4 3 4q6 0 16.5 -4.5t20 -11t17 -14.5t7.5 -15
q-46 -38 -85 -83.5t-67 -96.5t-44 -106.5t-16 -113.5q0 -70 25 -138q28 7 52.5 10.5t48.5 3.5t50 -3.5t58 -10.5q-14 57 -20 115t-6 118q0 68 7 134.5t20 130.5q32 -124 45.5 -249l26.5 -249q29 6 48.5 9.5t37.5 3.5q17 0 35.5 -3.5l46.5 -8.5q2 0 3.5 -0.5t3.5 -0.5
q7 62 15 119.5t19 115t27 117.5t39 127q8 -53 11 -104.5t3 -103.5q0 -69 -4.5 -136t-11.5 -135q65 14 125 14q28 0 55 -3t53 -11q-9 85 -15.5 167.5t-6.5 166.5q0 63 4.5 126.5t15.5 129.5q-51 -12 -109 -12q-32 0 -64 3.5t-62 8.5l-25 -79l-24 -72l-23.5 -71z" />
    <glyph glyph-name="FL00CDh" unicode="&#xcd;" horiz-adv-x="658" 
d="M262 590q-41 -5 -71.5 -8t-59.5 -3q-26 0 -53 2.5t-59 8.5q12 -63 17.5 -126.5t5.5 -127.5q0 -85 -7 -168.5t-16 -167.5q64 9 122 9q55 0 115 -9q-3 17 -6 43t-5 55.5t-3 61t-1 59.5q0 26 1 46.5t3 34.5q23 -7 41 -13t43 -6q20 0 40 5.5t38 13.5q0 -66 -0.5 -114.5
t-2.5 -84t-5.5 -60t-9.5 -41.5q35 5 67 7.5t64 2.5q58 0 111 -10q-24 142 -24 289q0 76 7 151t23 150q-34 -6 -63 -9t-58 -3q-56 0 -122 12q8 -38 11.5 -80.5t3.5 -84.5v-36t-2 -34q-19 4 -40 12.5t-42 8.5q-20 0 -40.5 -7.5t-40.5 -12.5q0 25 1 56t3 62.5t5.5 61.5t8.5 54z
" />
    <glyph glyph-name="FL00CEh" unicode="&#xce;" 
d="M341 0q64 0 125 18.5t107.5 56t75 93.5t28.5 130q0 76 -28.5 131t-75.5 91t-107.5 53t-124.5 17q-65 0 -124.5 -17t-105.5 -53t-73 -91t-27 -131q0 -72 27 -127.5t73 -93.5t105.5 -57.5t124.5 -19.5zM341 555q21 0 37.5 -23t27 -60t16 -84t5.5 -96q0 -48 -5.5 -94.5
t-16 -83t-26 -58.5t-36.5 -22q-22 0 -38 22.5t-26.5 59t-16 83.5t-5.5 96t5 95.5t15.5 83t26.5 59t37 22.5z" />
    <glyph glyph-name="FL00CFh" unicode="&#xcf;" horiz-adv-x="706" 
d="M359 598q-24 6 -43 10t-35.5 7t-32 4.5t-32.5 1.5q-22 0 -57 -6t-68 -19.5t-57 -35t-24 -51.5q0 -22 14.5 -38.5t37.5 -16.5q20 0 36 15t16 35q0 23 -10 33t-28 18q10 11 23 11q14 0 23.5 -10t16.5 -27q14 -34 16.5 -77.5t2.5 -79.5q0 -91 -11 -185t-29 -187q31 5 61 8.5
t61 3.5t62 -3.5t62 -8.5q-16 75 -23 157t-7 165q0 9 0.5 39t2 66t5 70.5t9.5 52.5q13 -8 20 -16.5t22 -8.5q7 0 18 3t21 7q6 0 9 -13.5t5 -31t3 -33.5t1 -20q3 -54 3 -112q0 -82 -5.5 -165t-16.5 -160q70 12 125 12q29 0 57.5 -3t62.5 -9q-17 69 -25 139t-8 141
q0 170 47 328q-39 -16 -78.5 -25.5t-81.5 -9.5q-43 0 -86 8t-85 17z" />
    <glyph glyph-name="FL00D1h" unicode="&#xd1;" horiz-adv-x="576" 
d="M10 291q0 -63 24 -116.5t65 -92.5t96 -60.5t117 -21.5q46 0 89.5 8t78.5 25.5t58 45.5t28 69q0 25 -16.5 43t-45.5 18q-20 0 -30.5 -15t-10.5 -33q0 -17 9.5 -30.5t29.5 -13.5q-10 -32 -38 -47t-61 -15q-46 0 -78 24t-52.5 61t-29.5 79.5t-9 80.5q0 22 3 49.5t10.5 55
t20 52.5t31.5 43q33 30 73 30q15 0 29.5 -5t28.5 -17q-12 3 -22 3q-23 0 -42 -10.5t-33 -28t-22 -39.5t-8 -45q0 -21 8 -40.5t22 -33.5t33 -22.5t41 -8.5q26 0 47.5 11t36.5 29.5t23.5 42t8.5 47.5q0 44 -22 77.5t-55.5 55.5t-74.5 33t-78 11q-57 0 -108 -24t-90 -64
t-62 -92t-23 -108v-11z" />
    <glyph glyph-name="FL00D2h" unicode="&#xd2;" horiz-adv-x="1102" 
d="M412 0q38 6 64 9.5t51 3.5q23 0 49 -3t65 -10q-9 54 -12.5 111t-3.5 116q0 78 5.5 156t12.5 151q22 -24 53 -24q21 0 38 13q3 -1 5 -15.5t3.5 -32.5t2 -34.5t0.5 -22.5q-6 -101 -11.5 -163t-5.5 -103q0 -35 2 -55.5t6 -35.5t9 -28.5t11 -32.5q12 16 26 23t27 7
q25 -3 46 -8t40 -10t38 -8.5t41 -3.5q23 0 44.5 7t37.5 20.5t25.5 33t9.5 45.5q0 23 -15.5 41.5t-38.5 18.5q-19 0 -34 -13.5t-15 -33.5q0 -23 14.5 -34.5t35.5 -13.5q1 0 1 -1v0q-20 -14 -37 -14q-21 0 -35 14.5t-22.5 39t-11.5 56.5t-3 66q0 33 2.5 65.5t5.5 60.5t6 49.5
t5 31.5q1 4 3.5 16.5l5.5 27l5.5 27.5l3.5 18t4 16.5l6.5 24.5l6.5 24.5t4 16.5q-59 -15 -122.5 -21.5t-126.5 -6.5q-40 0 -78 2.5t-73 5.5q-50 4 -83 8l-54 6.5t-32.5 4t-17.5 1.5q-10 1 -32.5 3.5t-47 4.5t-46.5 4t-31 2q-25 0 -51.5 -1.5t-52.5 -7t-50 -16t-43 -28.5
q-16 -15 -26.5 -31.5t-10.5 -38.5q0 -23 14 -36.5t34 -13.5t35 13.5t15 34.5q0 19 -9 29t-26 22q8 4 17 4q17 0 27 -13.5t15.5 -33.5t7 -44.5t1.5 -45.5q0 -107 -9.5 -207.5t-31.5 -209.5q31 5 58.5 9t53.5 4q29 0 58.5 -3.5t61.5 -9.5q-15 132 -15 269q0 86 3.5 160
t23.5 140q10 -15 21.5 -21.5t23.5 -6.5q10 0 19.5 4t17.5 10q7 -10 9.5 -44t2.5 -80q0 -42 -2 -90t-4.5 -96.5t-6 -93.5t-6.5 -79t-5 -53.5t-2 -18.5z" />
    <glyph glyph-name="FL00D3h" unicode="&#xd3;" horiz-adv-x="592" 
d="M228 -227q28 0 53 9t48.5 22.5t45.5 29t45 29.5q20 11 40 20t43 9l26 -3q5 0 9 14.5t6.5 33.5t4 37.5t1.5 25.5q0 31 -2.5 66t-6 71.5t-6 72.5t-2.5 69q0 73 16 154.5t36 156.5q-23 -9 -48.5 -13t-51.5 -4q-59 0 -115 17q-15 -60 -24 -124t-14 -127q0 -42 -5.5 -71.5
t-29.5 -29.5q-22 7 -36 22t-21.5 34.5t-10.5 40.5t-3 41q0 54 15.5 108.5l29.5 105.5q-19 -13 -38 -17.5t-39 -4.5q-34 0 -66.5 11t-66.5 11q-12 0 -25.5 -5l-24.5 -9q14 -23 22.5 -45.5t8.5 -50.5q0 -32 -5.5 -63t-5.5 -63q0 -38 12.5 -74.5t35.5 -66t55.5 -47.5t73.5 -18
q38 0 66 17l59 37q12 -45 18 -92t6 -94q0 -33 -5.5 -69.5t-20.5 -67.5t-41.5 -51.5t-68.5 -20.5q-9 0 -22.5 4t-26.5 10.5t-22.5 16t-9.5 20.5q15 -10 26 -13t28 -3q23 0 40 9.5t28.5 25t17 35.5t5.5 41q0 23 -9 44.5t-24.5 38t-36 26.5t-44.5 10q-26 0 -45.5 -13t-33 -32.5
t-20.5 -43.5t-7 -46q0 -33 13 -63t35 -52.5t51.5 -35.5t63.5 -13z" />
    <glyph glyph-name="FL00D4h" unicode="&#xd4;" horiz-adv-x="851" 
d="M840 324q0 42 -11.5 89t-35 86t-59 65t-84.5 26q-20 0 -38.5 -7t-35 -18t-31.5 -25t-29 -29q-1 9 -1.5 19t-0.5 21q0 28 3.5 57.5t12.5 56.5t24 48t37 32q0 -10 -5 -19.5t-5 -20.5q0 -23 12.5 -34t29.5 -11t32.5 12.5t15.5 38.5q0 34 -25 49.5t-55 15.5q-21 0 -42 -7
t-41 -16.5t-39.5 -20.5t-38.5 -19q-33 -14 -63.5 -17t-68.5 -3q9 -33 16 -73t7 -78q0 -8 -0.5 -15.5t-1.5 -15.5q-24 32 -50.5 55.5t-68.5 23.5q-46 0 -81.5 -23t-60 -58.5t-37 -78.5t-12.5 -84q0 -44 13.5 -90.5t39.5 -84.5t64.5 -62t88.5 -24q34 0 61 7.5t51 31.5
q2 -23 3.5 -45.5t1.5 -46.5q0 -43 -5.5 -96.5t-19.5 -135.5q35 7 67 10t63 3q61 0 119 -13q-11 50 -18 89.5t-11.5 71.5t-6.5 58.5t-2 51.5q0 13 0.5 26t1.5 27q28 -23 60 -30t67 -7q48 0 84 21t60.5 55t36.5 76.5t12 84.5zM273 500q19 0 30.5 -18t17.5 -45t8 -58.5t2 -58.5
q0 -24 -2 -55t-8.5 -59t-18 -47.5t-29.5 -19.5q-23 0 -35.5 18t-19.5 45t-8.5 58.5t-1.5 59.5q0 23 1.5 54t8.5 58.5t19.5 47t35.5 20.5zM577 501q19 0 30.5 -18t17.5 -45t8 -58.5t2 -58.5q0 -24 -2.5 -55t-9 -59.5t-18 -48t-29.5 -19.5q-23 0 -35.5 18t-19 45t-8 59
t-1.5 60q0 23 1.5 54t8.5 58.5t19.5 47t35.5 20.5z" />
    <glyph glyph-name="FL00D5h" unicode="&#xd5;" horiz-adv-x="682" 
d="M400 0q47 8 81.5 11.5t61.5 3.5t55 -5t69 -10q0 56 -18.5 109.5t-51.5 98t-79 75.5t-101 42q109 23 167.5 88t58.5 177q-42 -8 -71.5 -11t-57.5 -3t-56 3t-73 11q11 -14 15.5 -45.5t4.5 -69.5q0 -21 -3 -42.5t-10 -38.5t-18.5 -27.5t-28.5 -10.5q-20 0 -33 10.5t-20.5 27
t-10.5 38t-3 44.5q0 35 4.5 66.5t8.5 47.5q-38 -6 -67 -9t-57 -3t-58.5 2.5t-72.5 7.5q0 -47 17.5 -92t48 -81t71.5 -60t88 -30q-51 -13 -96 -41.5t-79.5 -70.5t-54.5 -95.5t-20 -117.5q42 6 73.5 9.5t62.5 3.5q55 0 126 -13q-2 32 -5.5 62t-3.5 59q0 19 4 45.5t13.5 51.5
t25 44t38.5 24q22 -8 35.5 -29t21 -46.5t10 -52t2.5 -45.5q0 -26 -5 -53.5t-9 -59.5z" />
    <glyph glyph-name="FL00D6h" unicode="&#xd6;" horiz-adv-x="756" 
d="M441 -145q0 -27 16 -45t39.5 -28.5t50 -15t47.5 -4.5q59 0 90 25.5t45 65.5q13 38 15.5 82.5t2.5 87.5v18q-27 1 -48 1h-37h-75q-2 45 -4.5 83.5t-2.5 74.5q0 59 1 109.5t4.5 97t9.5 91.5t16 92q-35 -9 -61.5 -13t-57.5 -4t-61.5 4t-63.5 13q3 -14 7.5 -60t8.5 -107.5
t7 -129.5t3 -125q0 -39 -0.5 -74t-4.5 -52q-27 11 -45.5 16.5t-35.5 5.5t-35.5 -5.5t-45.5 -16.5q-5 48 -8 95.5t-3 95.5q0 91 9.5 180t26.5 177q-34 -8 -63.5 -12.5t-58.5 -4.5t-57.5 4.5t-60.5 12.5q10 -57 15 -133t5 -157q0 -92 -6 -175.5t-16 -137.5q3 1 14.5 3t26 4
l29.5 4t24 2h382q44 0 81 -7t63.5 -21.5t41.5 -36.5t15 -52t-16.5 -55t-50.5 -25q-7 0 -11 1q23 11 35.5 33.5t12.5 39.5q0 28 -24.5 48t-66.5 20q-19 0 -41 -5.5t-40.5 -16.5t-30.5 -28t-12 -40z" />
    <glyph glyph-name="FL00D8h" unicode="&#xd8;" horiz-adv-x="912" 
d="M899 0q-9 64 -13.5 144t-4.5 156q0 81 5 152.5t14 137.5q-31 -9 -60.5 -13t-58.5 -4t-61.5 4t-63.5 13q9 -69 15 -145.5t6 -144.5q0 -73 -3.5 -132.5t-8.5 -113.5q-14 8 -28.5 14t-27.5 6t-24.5 -6t-28.5 -14q-2 25 -4 57t-3 65.5t-1.5 66t-0.5 57.5q0 42 2.5 77t7 68.5
t10 68t11.5 76.5q-32 -10 -64 -13.5t-61 -3.5t-58 3.5t-61 13.5q13 -72 17.5 -143t4.5 -147q0 -60 -3 -124t-8 -122q-17 10 -29 15t-23 5t-23 -4.5t-30 -14.5q-3 20 -5 51t-3.5 65.5t-2.5 68.5t-1 60q0 40 2 73.5t5.5 66.5l7.5 69t8 81q-29 -8 -58.5 -12.5t-58.5 -4.5
q-26 0 -55.5 4.5t-64.5 12.5q7 -74 11 -143t4 -147q0 -73 -5 -152t-11 -148h886z" />
    <glyph glyph-name="FL00D9h" unicode="&#xd9;" horiz-adv-x="1031" 
d="M724 -144q0 -26 11 -44t28.5 -29t39.5 -16t45 -5q61 0 95.5 20.5t51.5 55.5t21 81t4 98q0 8 -1.5 19.5t-11.5 11.5h-126q-10 56 -15 111.5t-5 115.5q0 69 7 145.5t22 169.5q-26 -10 -56.5 -12t-58.5 -2q-18 0 -31.5 1t-27 2.5t-27.5 4t-32 6.5q6 -50 10.5 -93.5t7 -83
t4 -75.5t1.5 -71q0 -53 -3.5 -104t-8.5 -115q-14 11 -26.5 15.5t-26.5 4.5t-27 -6t-27 -14q-8 35 -11.5 79t-3.5 94q0 49 2.5 99.5t7 99t9 92t9.5 78.5q-32 -7 -60 -10.5t-57 -3.5t-59 3.5t-65 10.5q11 -86 17 -176.5t6 -169.5q0 -64 -3.5 -115.5t-10.5 -80.5q-26 20 -47 20
q-11 0 -23 -5t-29 -15q-8 63 -13 123.5t-5 120.5q0 72 8 145t25 153q-32 -7 -59.5 -10.5t-55.5 -3.5q-29 0 -59.5 3.5t-71.5 10.5q2 -6 5.5 -31.5t7 -64.5t6 -90.5t2.5 -110.5q0 -68 -4.5 -142.5t-16.5 -150.5h738q37 0 79 -4t75 -22q25 -14 41.5 -34.5t16.5 -53.5
q0 -26 -14.5 -47t-46.5 -21q12 9 22 22.5t10 29.5q0 19 -8 34.5t-21.5 26t-30 16.5t-34.5 6q-20 0 -40 -7t-37 -20t-27.5 -31t-10.5 -39z" />
    <glyph glyph-name="FL00DAh" unicode="&#xda;" horiz-adv-x="756" 
d="M746 202q-1 43 -15 75t-38 53.5t-54.5 32.5t-64.5 11q-30 0 -61.5 -9t-60.5 -27q-3 11 -5 28t-2 38q0 43 8 94t26 92l-69.5 -5.5t-58.5 -4t-51 -2t-48 -0.5t-48.5 0.5t-52 2t-60 4l-71.5 5.5q18 -29 37.5 -56.5t35 -57t26 -61t10.5 -68.5q0 -31 -10.5 -58.5t-35.5 -47.5
q0 20 -5.5 36t-30.5 16q-17 0 -27 -10.5t-10 -27.5q0 -24 14 -33t32 -9q22 0 43 8t39.5 21.5t33 30.5t25.5 35q20 35 32.5 74.5t21.5 74.5q3 -24 4.5 -53t1.5 -61q0 -46 -3 -95t-8 -94.5t-12.5 -85.5t-16.5 -68q38 6 65.5 8.5t51.5 2.5q18 0 36.5 -1.5t40 -4t48.5 -4
t62 -1.5q44 0 85 14t72 40.5t49.5 63.5t18.5 84zM550 156q0 -10 -1.5 -29.5t-7.5 -39t-16.5 -34t-28.5 -14.5q-15 0 -26.5 13.5t-19 35t-11 48.5t-3.5 54q0 22 3 43t8.5 36.5t14 25t19.5 9.5q22 0 35.5 -17.5t21 -41.5t10 -49t2.5 -40z" />
    <glyph glyph-name="FL00DBh" unicode="&#xdb;" horiz-adv-x="782" 
d="M531 590q14 -92 21.5 -167t7.5 -144q0 -68 -7 -134.5t-22 -144.5q38 5 67 8t55 3t53.5 -3t64.5 -8q-14 78 -21.5 144.5t-7.5 134.5q0 69 7.5 144t21.5 167q-35 -6 -59.5 -9t-51.5 -3q-26 0 -56.5 2.5t-72.5 9.5zM531 203q0 36 -13.5 68.5t-37.5 57t-56 38.5t-69 14
q-35 0 -62 -13t-56 -30q-9 64 -9 104q0 37 7 69.5t24 78.5q-39 -6 -67.5 -9t-54.5 -3t-55 3t-67 9q14 -59 20 -124.5t6 -134.5q0 -88 -8 -173.5t-20 -157.5q32 5 56.5 7.5t47.5 2.5q21 0 40.5 -1.5t41.5 -3.5t47.5 -3.5t58.5 -1.5q44 0 84.5 14t72 40.5t50.5 64t19 84.5z
M335 157q0 -11 -1.5 -30.5t-7 -38.5t-16 -33.5t-28.5 -14.5q-15 0 -25.5 12t-17 31t-10 43.5t-3.5 50.5q0 24 1.5 47t5.5 40.5t12 28.5t21 11q22 0 35.5 -17.5t21 -41.5t10 -48.5t2.5 -39.5z" />
    <glyph glyph-name="FL00DCh" unicode="&#xdc;" horiz-adv-x="534" 
d="M126 574q-58 0 -118 16q12 -66 18 -147t6 -164q0 -78 -6 -150t-16 -129q36 6 65 8t53 2q21 0 40 -1.5t39 -3.5t42.5 -3.5t50.5 -1.5q46 0 87 14t71.5 41t48 66t17.5 89q0 40 -14.5 72.5t-38.5 55.5t-56 35.5t-66 12.5q-29 0 -58.5 -9.5t-56.5 -30.5q-1 12 -1 23v23
q0 46 7 91t24 107q-34 -7 -68.5 -11.5t-69.5 -4.5zM221 207q0 16 0.5 34.5t4.5 34t12.5 26t24.5 10.5q17 0 30 -14.5t21.5 -36t13 -47t4.5 -47.5q0 -18 -1.5 -38.5t-6 -38.5t-14.5 -29.5t-26 -11.5q-24 0 -36.5 17t-18.5 41t-7 51.5t-1 48.5z" />
    <glyph glyph-name="FL00DFh" unicode="&#xdf;" 
d="M423 254q4 -24 6 -43t2 -39q0 -32 -7 -70.5t-24 -101.5q47 6 78 9t58 3q28 0 57.5 -3t71.5 -9l-18 97t-13 82.5t-8 72t-3 65.5q0 60 10 120t33 137q-41 -8 -70.5 -11.5t-53.5 -3.5q-27 0 -57.5 5l-61.5 10.5t-62.5 10.5t-60.5 5q-36 0 -72 -7t-64.5 -24.5t-46 -46
t-17.5 -71.5q0 -49 19.5 -79t51.5 -47t72.5 -26t81.5 -16q-37 -17 -62.5 -33t-45 -33t-35.5 -37t-34 -45q-6 -8 -13 -19t-16 -21t-19.5 -17t-22.5 -7q-4 0 -14.5 3t-10.5 11q18 2 35.5 12t17.5 33q0 18 -12 30t-30 12q-26 -5 -39 -24t-13 -42q0 -27 14.5 -45.5t36 -29.5
t46.5 -16t46 -5q35 0 63.5 6.5t52.5 24.5q22 16 38.5 39t24.5 52q7 23 17.5 53t27.5 52q19 24 45 27zM318 431q0 19 3 40.5t10.5 40t19.5 30.5t29 12q19 0 29 -22.5t15 -52.5t6 -59t1 -41q0 -42 -4.5 -63.5t-20.5 -21.5q-22 0 -38.5 14.5t-27.5 35.5t-16.5 45t-5.5 42z" />
    <glyph glyph-name="FL00E0h" unicode="&#xe0;" horiz-adv-x="523" 
d="M161 541q13 6 30 6q19 0 35.5 -7t27.5 -18q14 -14 22.5 -33t13 -40.5t6 -44t1.5 -42.5t-6 -27t-17 -7q-14 0 -33.5 7t-40.5 7q-37 0 -71.5 -14t-60.5 -38t-42 -57.5t-16 -72.5q0 -33 11.5 -62.5t32.5 -51t49.5 -34t62.5 -12.5q50 0 88.5 19t55.5 38q4 -7 4 -15
q0 -9 -2.5 -19t-4.5 -23q25 4 50 6.5t49 2.5q26 0 50.5 -2.5t50.5 -6.5l-11.5 48t-6.5 50t2.5 47.5l5 51.5l5 50t2.5 43q0 62 -14 117t-45.5 95.5t-81.5 64t-122 23.5q-30 0 -65 -9.5t-64 -28t-48.5 -45.5t-19.5 -62q0 -38 26.5 -59t61.5 -21q19 0 36 7t30 19t20.5 28.5
t7.5 35.5q0 34 -19 53t-46 33zM203 179q0 13 3 33t10 39t18.5 33t29.5 14q15 0 23.5 -10t13 -24t6 -29t1.5 -25q0 -11 -1.5 -31t-7.5 -39.5t-16.5 -34t-28.5 -14.5q-15 0 -25 9.5t-16 23t-8 28.5t-2 27z" />
    <glyph glyph-name="FL00E1h" unicode="&#xe1;" horiz-adv-x="614" 
d="M536 210q0 52 -22 93.5t-58.5 70t-83.5 43.5t-97 15q-37 0 -66 -6t-54.5 -17t-50 -27.5t-51.5 -38.5q-5 0 -7 5t-3.5 11.5t-1.5 12.5v11q0 20 8 37t22 29t31.5 18.5t37.5 6.5q45 0 98.5 -10t106.5 -10q22 0 42.5 2.5t39.5 10.5q37 13 66 48q-4 23 -5.5 36.5t-1.5 22.5
q0 13 3 21.5l8 23.5t8.5 34t3.5 37q0 26 -12.5 45.5t-49.5 19.5q-19 0 -33 -12.5t-14 -32.5q0 -14 11 -21t23 -7q9 0 15 4.5t10 10l7 10t7 4.5q8 0 11 -6.5t3 -12.5q0 -25 -21 -37t-43 -12q-26 0 -51 6t-49.5 12.5t-50 12.5t-51.5 6q-55 0 -98 -19.5t-72 -54.5
q-27 -34 -34.5 -71.5t-7.5 -77.5v-160q0 -39 0.5 -65.5t2 -44.5t5 -30t8.5 -23q15 -32 42 -57t61 -42t71.5 -26t75.5 -9q49 0 95.5 11.5t83.5 36.5t59.5 65t22.5 97zM275 36q-16 0 -27.5 14.5t-19 38.5t-11.5 55t-4 64q0 34 4 66.5t11.5 58t19.5 41.5t27 16q13 0 23.5 -15
t17 -39t10 -55t3.5 -64q0 -34 -3.5 -66.5t-10.5 -58t-17 -41t-23 -15.5z" />
    <glyph glyph-name="FL00E2h" unicode="&#xe2;" horiz-adv-x="557" 
d="M547 167q0 42 -13.5 67t-37.5 40t-56.5 23t-69.5 15l-27 5q34 9 62.5 21.5t49.5 30t33 41.5t12 57q0 30 -11 52.5t-30 38.5t-44.5 24t-53.5 8q-69 -3 -124.5 -6.5t-92.5 -3.5q-18 0 -32.5 1t-29 2.5t-31 3l-38.5 3.5q8 -32 12.5 -70.5t7 -80t3 -82t0.5 -74.5
q0 -71 -5.5 -142t-17.5 -141q33 5 64.5 7.5t64.5 2.5q39 0 82 -2.5t94 -7.5q41 0 82 7.5t73.5 26t53 51t20.5 82.5zM273 39q-9 0 -17 6t-14 15t-10.5 18.5t-5.5 17.5q-1 4 -2.5 16t-3 28.5t-3 35.5t-1.5 37q0 32 5.5 56.5t20.5 24.5q24 0 41 -18.5t28.5 -44.5t16.5 -53
t5 -45q0 -12 -3.5 -28t-11 -30.5t-19 -25t-26.5 -10.5zM285 544q23 0 34 -19.5t11 -40.5q0 -17 -4 -43.5t-15 -51.5t-29.5 -42.5t-46.5 -16.5q-8 0 -10.5 15.5t-2.5 33.5q0 11 0.5 21.5t1 17.5t1 8.5t-0.5 -4.5q0 13 2.5 33.5t9 40t18.5 34t31 14.5z" />
    <glyph glyph-name="FL00E3h" unicode="&#xe3;" horiz-adv-x="437" 
d="M18 165q0 -37 16 -67.5t42.5 -52t60 -33.5t67.5 -12q21 0 39.5 3.5t38 8t41 8t47.5 3.5q20 0 44 -3q-1 5 -3.5 32t-5.5 70q-2 29 -2 62t-3 71q-9 -30 -25.5 -67t-39 -70t-50 -55t-59.5 -22t-46.5 19t-14.5 44q0 24 13 47t38 31l70 44t68.5 50.5t52 62.5t20.5 80
q0 46 -20.5 78.5t-52.5 53t-73 30t-81 9.5q-26 0 -58.5 -5.5t-62 -18.5t-49.5 -34.5t-20 -53.5q0 -20 8 -34t21.5 -24t30.5 -14.5t35 -4.5q16 0 32.5 6t30 16.5t22 25t8.5 31.5q0 19 -8.5 31.5t-20.5 19.5t-25 11l-22 7q28 13 57 13q33 0 60 -16.5t29 -51.5q-6 -40 -27 -68
t-49 -50.5t-59.5 -42.5t-57 -43.5t-42 -53t-15.5 -71.5z" />
    <glyph glyph-name="FL00E4h" unicode="&#xe4;" horiz-adv-x="570" 
d="M239 -213q35 0 72 17.5t74 39l71 40t63 21.5q13 1 17.5 28.5t4.5 67.5q0 35 -2.5 74.5t-5.5 74.5t-5.5 60.5t-2.5 33.5q0 35 2 75t5.5 79t7 74t7.5 61t7.5 40t5.5 11q-29 -10 -60 -14.5t-62 -4.5q-45 0 -92 11q-26 6 -49.5 10t-49.5 4q-51 0 -94.5 -18.5t-75 -51
t-49.5 -76t-18 -93.5q0 -61 34 -111t87 -76q24 -9 53.5 -16.5t58.5 -7.5q24 0 46 6.5t39 23.5q9 -67 13.5 -105.5t6.5 -58.5t2.5 -26.5t0.5 -8.5q0 -31 -8.5 -58.5t-25.5 -48t-42.5 -32.5t-58.5 -12q-16 0 -40.5 8t-48 22t-40 32.5t-16.5 39.5l5 -2.5t13.5 -6t20.5 -6.5
t26 -3q11 0 22.5 2.5t23.5 8.5q23 14 32.5 38t9.5 50q0 24 -8 46t-23 39t-36 27.5t-46 10.5q-23 0 -41 -11t-30 -28.5t-18.5 -38.5t-6.5 -42q0 -45 18.5 -85t49.5 -69.5t71.5 -47t84.5 -17.5zM285 193q-22 0 -35 20t-19.5 47t-8 54.5t-1.5 42.5q0 22 3 54t13.5 62t29 51
t50.5 21q4 0 9.5 -0.5t11 -2t9.5 -5t4 -9.5q-14 -71 -21.5 -139t-7.5 -137q-2 -33 -12 -46t-25 -13z" />
    <glyph glyph-name="FL00E5h" unicode="&#xe5;" horiz-adv-x="578" 
d="M10 281q0 -64 26 -116t70 -88.5t100.5 -56.5t118.5 -20q31 0 67.5 10.5t67 30.5t51 49.5t20.5 67.5q0 29 -18 52.5t-50 23.5q-29 0 -48.5 -21t-19.5 -50q0 -52 60 -52q2 -4 2 -12q0 -12 -8.5 -22t-20.5 -16.5t-26 -10.5t-25 -4q-42 0 -68.5 23t-42.5 57.5t-22 74t-6 71.5
q32 -10 66 -16.5t68 -6.5q32 0 66.5 9.5t63.5 28t47.5 46t18.5 63.5q0 46 -22.5 82t-57.5 61t-78 38t-85 13q-69 0 -127 -22t-100 -62t-65 -97.5t-23 -127.5zM237 315q-1 9 -1 17v16q0 19 1.5 37.5t6.5 41.5q2 10 9.5 32t19 43.5t25.5 38t29 16.5q17 0 26 -14.5t13.5 -34
t5 -39t0.5 -29.5q0 -20 -2.5 -44.5t-11 -47t-25 -37.5t-43.5 -15q-13 0 -29 4t-24 15z" />
    <glyph glyph-name="FL00E6h" unicode="&#xe6;" horiz-adv-x="948" 
d="M291 328q-43 0 -83 -15t-76 -38q-34 -21 -57.5 -52.5t-38 -68t-21 -76t-6.5 -77.5q36 11 64.5 16t55.5 5t57 -5.5t69 -16.5q-5 25 -8.5 49.5t-3.5 47.5q0 48 17 88.5t61 66.5q9 5 18 9t17 4q18 0 26 -18v-22q0 -58 -10 -113.5t-27 -111.5q66 21 132 21q64 0 127 -21
q-11 57 -19 113.5t-8 113.5v22q6 14 22 14t30 -9q45 -26 62.5 -67t17.5 -89q0 -24 -4 -48.5t-9 -47.5q42 10 70.5 14.5t52.5 4.5q26 0 52.5 -5t64.5 -16q4 18 6 34.5t2 33.5q0 70 -31.5 123t-85.5 86q-37 23 -81 35t-93 12q-10 0 -19.5 -0.5t-19.5 -1.5q-1 5 -1.5 8.5
t-0.5 8.5q0 23 10 46t24 43q7 10 17.5 21t22 20t23 15t22.5 6q-12 -23 -12 -44q0 -18 7.5 -35t21 -30t32 -20.5t39.5 -7.5q45 0 66 30.5t21 69.5q0 22 -6 43.5t-18 39.5t-29 30t-38 14q-5 1 -10 1h-9q-45 0 -87.5 -22t-68.5 -54q-20 -24 -34 -53t-23 -60q4 67 11.5 135
t29.5 134q3 7 7.5 16t11.5 17t14.5 13.5t16.5 5.5q7 0 15 -6q-11 -5 -19.5 -13.5t-8.5 -19.5t7 -20t23 -9q21 0 32 14.5t11 34.5q0 22 -13.5 37t-33.5 23q-5 1 -9 1h-8q-21 0 -39 -8t-34.5 -19.5t-32 -24t-33.5 -22.5q-65 -34 -134 -34q-20 0 -41 3q0 1 -1 1v0v-1
q0 -5 4 -26t8.5 -55t8.5 -78.5t4 -95.5q-14 28 -24.5 58t-30.5 55q-23 31 -60 51.5t-75 20.5q-6 1 -12 1.5t-11 0.5q-27 0 -48 -11.5t-35.5 -29.5t-22 -41t-7.5 -46q0 -38 22 -67.5t72 -33.5q21 0 38 7.5t29.5 20.5t19 30t6.5 36q0 25 -12 49q26 -8 47.5 -30t35.5 -46
q14 -22 22 -46t8 -49z" />
    <glyph glyph-name="FL00E7h" unicode="&#xe7;" horiz-adv-x="552" 
d="M325 310q36 4 71 13t62 26.5t43.5 43.5t16.5 64q0 46 -27.5 72.5t-66.5 40t-83 17t-77 3.5q-29 0 -67 -4.5t-72 -18t-57.5 -38t-23.5 -64.5q0 -19 8.5 -35.5t22 -28.5t31 -19t36.5 -7q18 0 36 6.5t33 18t24 28t9 36.5q-6 34 -23 52.5t-57 24.5q22 7 47 7q45 0 76 -26.5
t31 -73.5q0 -27 -11 -49t-30 -37.5t-45 -24.5t-56 -9q-24 0 -48.5 4.5t-47.5 14.5q5 -12 7.5 -20.5t2.5 -16.5t-2.5 -16.5t-7.5 -22.5q36 15 79 15q30 0 59 -8t51.5 -24.5t36.5 -41.5t14 -59q0 -28 -11 -50.5t-29 -38.5t-41 -24.5t-48 -8.5q-39 0 -72 21q28 0 51 8
t39.5 20.5t25.5 29.5t9 37q0 17 -8 34.5t-23 31.5t-36.5 23t-49.5 9q-23 0 -43.5 -8.5t-37 -22.5t-26.5 -32t-10 -38q6 -49 31 -77.5t61 -43.5t79.5 -19t85.5 -4q37 0 85 4t90 19.5t71 46t29 82.5q0 41 -21 69t-53 46t-70 28t-73 15z" />
    <glyph glyph-name="FL00E8h" unicode="&#xe8;" horiz-adv-x="724" 
d="M367 180q8 -35 19.5 -67.5t30 -57.5t45 -40t63.5 -15q34 0 67 7t59.5 22.5t43 40t16.5 59.5q0 31 -15 55.5t-50 24.5q-22 0 -39.5 -15.5t-17.5 -38.5t15.5 -37t35.5 -14q8 0 16.5 2.5t16.5 9.5q0 -20 -10.5 -36t-33.5 -16q-26 0 -41 15.5t-22.5 38t-9 47t-1.5 42.5
q0 56 5.5 112t13.5 112q5 39 15 80t18 79q-33 -7 -65.5 -10.5t-66.5 -3.5q-33 0 -66 3.5t-67 10.5q5 -21 8 -46t5 -51.5t3 -51.5t1 -45q0 -31 -1.5 -69.5t-7.5 -72.5t-17.5 -57t-32.5 -23q-15 0 -25 9.5t-15.5 25t-8 35.5t-2.5 42q0 20 1.5 40t3.5 37.5t4 31l3 20.5l15 88
t24 87q-38 -7 -74.5 -10.5t-73.5 -3.5q-36 0 -71.5 3.5t-71.5 10.5q23 -40 30.5 -85.5t7.5 -93.5q-1 -56 -10 -110.5t-9 -108.5q0 -32 8.5 -66t25.5 -62t44 -46t65 -18t68 16.5t53.5 43t41.5 58.5t33 62z" />
    <glyph glyph-name="FL00E9h" unicode="&#xe9;" horiz-adv-x="724" 
d="M367 180q8 -35 19.5 -67.5t30 -57.5t45 -40t63.5 -15q34 0 67 7t59.5 22.5t43 40t16.5 59.5q0 31 -15 55.5t-50 24.5q-22 0 -39.5 -15.5t-17.5 -38.5t15.5 -37t35.5 -14q8 0 16.5 2.5t16.5 9.5q0 -20 -10.5 -36t-33.5 -16q-26 0 -41 15.5t-22.5 38t-9 47t-1.5 42.5
q0 56 5.5 112t13.5 112q5 39 15 80t18 79q-33 -7 -65.5 -10.5t-66.5 -3.5q-33 0 -66 3.5t-67 10.5q5 -21 8 -46t5 -51.5t3 -51.5t1 -45q0 -31 -1.5 -69.5t-7.5 -72.5t-17.5 -57t-32.5 -23q-15 0 -25 9.5t-15.5 25t-8 35.5t-2.5 42q0 20 1.5 40t3.5 37.5t4 31l3 20.5l15 88
t24 87q-36 -7 -72 -10.5t-72 -3.5q-71 0 -147 14q23 -40 30.5 -85.5t7.5 -93.5q-1 -56 -10 -110.5t-9 -108.5q0 -32 8.5 -66t25.5 -62t44 -46t65 -18t68 16.5t53.5 43t41.5 58.5t33 62zM218 807q-54 -2 -81.5 -24.5t-30.5 -51.5q0 -32 18 -55t48 -38t69 -22.5t81 -7.5h4
q47 1 93 10.5t82.5 27.5t59 45t22.5 62q0 40 -30.5 60t-74.5 20q-38 0 -71 -16t-43 -46q18 12 39 12q17 0 29.5 -10t12.5 -33q0 -27 -14 -44.5t-35 -27.5t-45.5 -14t-45.5 -4q-20 0 -39 1.5t-35 11.5q13 0 30 4t32.5 12t27 22t12.5 34q0 18 -8.5 31.5t-23 22.5t-33.5 13.5
t-40 4.5h-10z" />
    <glyph glyph-name="FL00EAh" unicode="&#xea;" horiz-adv-x="629" 
d="M268 328q1 19 13 49t31 58t41.5 48t44.5 20q-13 -22 -13 -50q0 -18 6 -35.5t17 -31t28 -21.5t38 -8q24 0 42.5 10.5t32 27.5t20.5 38.5t7 43.5q0 58 -34.5 85.5t-88.5 27.5q-44 0 -77.5 -19.5t-59 -50t-43.5 -67t-30 -70.5q-1 29 -3.5 63.5t-2.5 69.5q0 32 3.5 64t14 60
t29 51t48.5 38q-6 -14 -6 -24q0 -17 12.5 -26.5t27.5 -9.5q20 0 30 12t10 31q0 30 -14.5 45t-36.5 18q-5 1 -14 1q-21 0 -40.5 -8t-38.5 -19.5t-37.5 -24.5t-37.5 -23q-45 -29 -86.5 -39t-90.5 -14q16 -86 22.5 -172.5t6.5 -173.5q0 -77 -4 -152t-11 -150q36 7 67 10.5
t60 3.5q28 0 56.5 -3t60.5 -11l-18 114t-10 117q5 23 12.5 29.5t16.5 6.5q13 0 26 -6t22 -13q32 -29 42.5 -64t10.5 -74q0 -26 -3 -54l-6 -56q35 8 64 11t58 3q30 0 62 -3.5t71 -10.5q1 6 1 11v12q0 60 -20 117t-56 101t-86 71t-110 27q-19 0 -38 -2.5t-39 -8.5z" />
    <glyph glyph-name="FL00EBh" unicode="&#xeb;" horiz-adv-x="653" 
d="M643 590q-82 -5 -146.5 -7.5t-127.5 -2.5q-34 0 -68 0.5t-71 2t-77.5 3.5t-86.5 4q75 -48 118 -123.5t56 -168.5q2 -14 3 -31t1 -36q0 -24 -3 -49.5t-10 -48.5t-19 -42t-30 -30q23 34 23 69q0 22 -8.5 38t-22 27t-30.5 16.5t-35 5.5q-25 0 -44 -9.5t-31.5 -25t-19 -35
t-6.5 -40.5q0 -51 31 -79t74 -28q48 0 88 25t71 63q33 40 56.5 92t39.5 106t23.5 105.5t7.5 91.5q11 -51 15 -109t4 -115q-1 -67 -6 -130.5t-21 -127.5q38 5 68.5 8t57.5 3q29 0 56.5 -3t60.5 -9q-5 78 -8 134.5t-3 110.5q0 34 1 70t3.5 77t6.5 89.5z" />
    <glyph glyph-name="FL00ECh" unicode="&#xec;" horiz-adv-x="840" 
d="M489 290l-21 91.5l-16.5 73l-14.5 65.5l-16 71q-44 -9 -76 -9q-31 0 -64 9q-29 5 -59 15.5t-61 15.5q-15 0 -30 -3.5t-27 -11t-20 -19.5t-8 -29q0 -21 12 -37.5t34 -16.5q20 0 32 13t12 33q0 3 -4 12.5t-4 15.5q0 4 3 4q6 0 16.5 -4.5t20 -11t17 -14.5t7.5 -15
q-46 -38 -85 -83.5t-67 -96.5t-44 -106.5t-16 -113.5q0 -70 25 -138q28 7 52.5 10.5t48.5 3.5t50 -3.5t58 -10.5q-14 57 -20 115t-6 118q0 68 7 134.5t20 130.5q32 -124 45.5 -249l26.5 -249q29 6 48.5 9.5t37.5 3.5q17 0 35.5 -3.5l46.5 -8.5q2 0 3.5 -0.5t3.5 -0.5
q7 62 15 119.5t19 115t27 117.5t39 127q8 -53 11 -104.5t3 -103.5q0 -69 -4.5 -136t-11.5 -135q65 14 125 14q28 0 55 -3t53 -11q-9 85 -15.5 167.5t-6.5 166.5q0 63 4.5 126.5t15.5 129.5q-51 -12 -109 -12q-32 0 -64 3.5t-62 8.5l-25 -79l-24 -72l-23.5 -71z" />
    <glyph glyph-name="FL00EDh" unicode="&#xed;" horiz-adv-x="658" 
d="M262 590q-41 -5 -71.5 -8t-59.5 -3q-26 0 -53 2.5t-59 8.5q12 -63 17.5 -126.5t5.5 -127.5q0 -85 -7 -168.5t-16 -167.5q64 9 122 9q55 0 115 -9q-3 17 -6 43t-5 55.5t-3 61t-1 59.5q0 26 1 46.5t3 34.5q23 -7 41 -13t43 -6q20 0 40 5.5t38 13.5q0 -66 -0.5 -114.5
t-2.5 -84t-5.5 -60t-9.5 -41.5q35 5 67 7.5t64 2.5q58 0 111 -10q-24 142 -24 289q0 76 7 151t23 150q-34 -6 -63 -9t-58 -3q-56 0 -122 12q8 -38 11.5 -80.5t3.5 -84.5v-36t-2 -34q-19 4 -40 12.5t-42 8.5q-20 0 -40.5 -7.5t-40.5 -12.5q0 25 1 56t3 62.5t5.5 61.5t8.5 54z
" />
    <glyph glyph-name="FL00EEh" unicode="&#xee;" 
d="M341 0q64 0 125 18.5t107.5 56t75 93.5t28.5 130q0 76 -28.5 131t-75.5 91t-107.5 53t-124.5 17q-65 0 -124.5 -17t-105.5 -53t-73 -91t-27 -131q0 -72 27 -127.5t73 -93.5t105.5 -57.5t124.5 -19.5zM341 555q21 0 37.5 -23t27 -60t16 -84t5.5 -96q0 -48 -5.5 -94.5
t-16 -83t-26 -58.5t-36.5 -22q-22 0 -38 22.5t-26.5 59t-16 83.5t-5.5 96t5 95.5t15.5 83t26.5 59t37 22.5z" />
    <glyph glyph-name="FL00EFh" unicode="&#xef;" horiz-adv-x="706" 
d="M359 598q-24 6 -43 10t-35.5 7t-32 4.5t-32.5 1.5q-22 0 -57 -6t-68 -19.5t-57 -35t-24 -51.5q0 -22 14.5 -38.5t37.5 -16.5q20 0 36 15t16 35q0 23 -10 33t-28 18q10 11 23 11q14 0 23.5 -10t16.5 -27q14 -34 16.5 -77.5t2.5 -79.5q0 -91 -11 -185t-29 -187q31 5 61 8.5
t61 3.5t62 -3.5t62 -8.5q-16 75 -23 157t-7 165q0 9 0.5 39t2 66t5 70.5t9.5 52.5q13 -8 20 -16.5t22 -8.5q7 0 18 3t21 7q6 0 9 -13.5t5 -31t3 -33.5t1 -20q3 -54 3 -112q0 -82 -5.5 -165t-16.5 -160q70 12 125 12q29 0 57.5 -3t62.5 -9q-17 69 -25 139t-8 141
q0 170 47 328q-39 -16 -78.5 -25.5t-81.5 -9.5q-43 0 -86 8t-85 17z" />
    <glyph glyph-name="FL00F1h" unicode="&#xf1;" horiz-adv-x="576" 
d="M10 291q0 -63 24 -116.5t65 -92.5t96 -60.5t117 -21.5q46 0 89.5 8t78.5 25.5t58 45.5t28 69q0 25 -16.5 43t-45.5 18q-20 0 -30.5 -15t-10.5 -33q0 -17 9.5 -30.5t29.5 -13.5q-10 -32 -38 -47t-61 -15q-46 0 -78 24t-52.5 61t-29.5 79.5t-9 80.5q0 22 3 49.5t10.5 55
t20 52.5t31.5 43q33 30 73 30q15 0 29.5 -5t28.5 -17q-12 3 -22 3q-23 0 -42 -10.5t-33 -28t-22 -39.5t-8 -45q0 -21 8 -40.5t22 -33.5t33 -22.5t41 -8.5q26 0 47.5 11t36.5 29.5t23.5 42t8.5 47.5q0 44 -22 77.5t-55.5 55.5t-74.5 33t-78 11q-57 0 -108 -24t-90 -64
t-62 -92t-23 -108v-11z" />
    <glyph glyph-name="FL00F2h" unicode="&#xf2;" horiz-adv-x="1102" 
d="M412 0q38 6 64 9.5t51 3.5q23 0 49 -3t65 -10q-9 54 -12.5 111t-3.5 116q0 78 5.5 156t12.5 151q22 -24 53 -24q21 0 38 13q3 -1 5 -15.5t3.5 -32.5t2 -34.5t0.5 -22.5q-6 -101 -11.5 -163t-5.5 -103q0 -35 2 -55.5t6 -35.5t9 -28.5t11 -32.5q12 16 26 23t27 7
q25 -3 46 -8t40 -10t38 -8.5t41 -3.5q23 0 44.5 7t37.5 20.5t25.5 33t9.5 45.5q0 23 -15.5 41.5t-38.5 18.5q-19 0 -34 -13.5t-15 -33.5q0 -23 14.5 -34.5t35.5 -13.5q1 0 1 -1v0q-20 -14 -37 -14q-21 0 -35 14.5t-22.5 39t-11.5 56.5t-3 66q0 33 2.5 65.5t5.5 60.5t6 49.5
t5 31.5q1 4 3.5 16.5l5.5 27l5.5 27.5l3.5 18t4 16.5l6.5 24.5l6.5 24.5t4 16.5q-59 -15 -122.5 -21.5t-126.5 -6.5q-40 0 -78 2.5t-73 5.5q-50 4 -83 8l-54 6.5t-32.5 4t-17.5 1.5q-10 1 -32.5 3.5t-47 4.5t-46.5 4t-31 2q-25 0 -51.5 -1.5t-52.5 -7t-50 -16t-43 -28.5
q-16 -15 -26.5 -31.5t-10.5 -38.5q0 -23 14 -36.5t34 -13.5t35 13.5t15 34.5q0 19 -9 29t-26 22q8 4 17 4q17 0 27 -13.5t15.5 -33.5t7 -44.5t1.5 -45.5q0 -107 -9.5 -207.5t-31.5 -209.5q31 5 58.5 9t53.5 4q29 0 58.5 -3.5t61.5 -9.5q-15 132 -15 269q0 86 3.5 160
t23.5 140q10 -15 21.5 -21.5t23.5 -6.5q10 0 19.5 4t17.5 10q7 -10 9.5 -44t2.5 -80q0 -42 -2 -90t-4.5 -96.5t-6 -93.5t-6.5 -79t-5 -53.5t-2 -18.5z" />
    <glyph glyph-name="FL00F3h" unicode="&#xf3;" horiz-adv-x="592" 
d="M228 -227q28 0 53 9t48.5 22.5t45.5 29t45 29.5q20 11 40 20t43 9l26 -3q5 0 9 14.5t6.5 33.5t4 37.5t1.5 25.5q0 31 -2.5 66t-6 71.5t-6 72.5t-2.5 69q0 73 16 154.5t36 156.5q-23 -9 -48.5 -13t-51.5 -4q-59 0 -115 17q-15 -60 -24 -124t-14 -127q0 -42 -5.5 -71.5
t-29.5 -29.5q-22 7 -36 22t-21.5 34.5t-10.5 40.5t-3 41q0 54 15.5 108.5l29.5 105.5q-19 -13 -38 -17.5t-39 -4.5q-34 0 -66.5 11t-66.5 11q-12 0 -25.5 -5l-24.5 -9q14 -23 22.5 -45.5t8.5 -50.5q0 -32 -5.5 -63t-5.5 -63q0 -38 12.5 -74.5t35.5 -66t55.5 -47.5t73.5 -18
q38 0 66 17l59 37q12 -45 18 -92t6 -94q0 -33 -5.5 -69.5t-20.5 -67.5t-41.5 -51.5t-68.5 -20.5q-9 0 -22.5 4t-26.5 10.5t-22.5 16t-9.5 20.5q15 -10 26 -13t28 -3q23 0 40 9.5t28.5 25t17 35.5t5.5 41q0 23 -9 44.5t-24.5 38t-36 26.5t-44.5 10q-26 0 -45.5 -13t-33 -32.5
t-20.5 -43.5t-7 -46q0 -33 13 -63t35 -52.5t51.5 -35.5t63.5 -13z" />
    <glyph glyph-name="FL00F4h" unicode="&#xf4;" horiz-adv-x="851" 
d="M840 324q0 42 -11.5 89t-35 86t-59 65t-84.5 26q-20 0 -38.5 -7t-35 -18t-31.5 -25t-29 -29q-1 9 -1.5 19t-0.5 21q0 28 3.5 57.5t12.5 56.5t24 48t37 32q0 -10 -5 -19.5t-5 -20.5q0 -23 12.5 -34t29.5 -11t32.5 12.5t15.5 38.5q0 34 -25 49.5t-55 15.5q-21 0 -42 -7
t-41 -16.5t-39.5 -20.5t-38.5 -19q-33 -14 -63.5 -17t-68.5 -3q9 -33 16 -73t7 -78q0 -8 -0.5 -15.5t-1.5 -15.5q-24 32 -50.5 55.5t-68.5 23.5q-46 0 -81.5 -23t-60 -58.5t-37 -78.5t-12.5 -84q0 -44 13.5 -90.5t39.5 -84.5t64.5 -62t88.5 -24q34 0 61 7.5t51 31.5
q2 -23 3.5 -45.5t1.5 -46.5q0 -43 -5.5 -96.5t-19.5 -135.5q35 7 67 10t63 3q61 0 119 -13q-11 50 -18 89.5t-11.5 71.5t-6.5 58.5t-2 51.5q0 13 0.5 26t1.5 27q28 -23 60 -30t67 -7q48 0 84 21t60.5 55t36.5 76.5t12 84.5zM273 500q19 0 30.5 -18t17.5 -45t8 -58.5t2 -58.5
q0 -24 -2 -55t-8.5 -59t-18 -47.5t-29.5 -19.5q-23 0 -35.5 18t-19.5 45t-8.5 58.5t-1.5 59.5q0 23 1.5 54t8.5 58.5t19.5 47t35.5 20.5zM577 501q19 0 30.5 -18t17.5 -45t8 -58.5t2 -58.5q0 -24 -2.5 -55t-9 -59.5t-18 -48t-29.5 -19.5q-23 0 -35.5 18t-19 45t-8 59
t-1.5 60q0 23 1.5 54t8.5 58.5t19.5 47t35.5 20.5z" />
    <glyph glyph-name="FL00F5h" unicode="&#xf5;" horiz-adv-x="682" 
d="M400 0q47 8 81.5 11.5t61.5 3.5t55 -5t69 -10q0 56 -18.5 109.5t-51.5 98t-79 75.5t-101 42q109 23 167.5 88t58.5 177q-42 -8 -71.5 -11t-57.5 -3t-56 3t-73 11q11 -14 15.5 -45.5t4.5 -69.5q0 -21 -3 -42.5t-10 -38.5t-18.5 -27.5t-28.5 -10.5q-20 0 -33 10.5t-20.5 27
t-10.5 38t-3 44.5q0 35 4.5 66.5t8.5 47.5q-38 -6 -67 -9t-57 -3t-58.5 2.5t-72.5 7.5q0 -47 17.5 -92t48 -81t71.5 -60t88 -30q-51 -13 -96 -41.5t-79.5 -70.5t-54.5 -95.5t-20 -117.5q42 6 73.5 9.5t62.5 3.5q55 0 126 -13q-2 32 -5.5 62t-3.5 59q0 19 4 45.5t13.5 51.5
t25 44t38.5 24q22 -8 35.5 -29t21 -46.5t10 -52t2.5 -45.5q0 -26 -5 -53.5t-9 -59.5z" />
    <glyph glyph-name="FL00F6h" unicode="&#xf6;" horiz-adv-x="756" 
d="M441 -145q0 -27 16 -45t39.5 -28.5t50 -15t47.5 -4.5q59 0 90 25.5t45 65.5q13 38 15.5 82.5t2.5 87.5v18q-27 1 -48 1h-37h-75q-2 45 -4.5 83.5t-2.5 74.5q0 59 1 109.5t4.5 97t9.5 91.5t16 92q-35 -9 -61.5 -13t-57.5 -4t-61.5 4t-63.5 13q3 -14 7.5 -60t8.5 -107.5
t7 -129.5t3 -125q0 -39 -0.5 -74t-4.5 -52q-27 11 -45.5 16.5t-35.5 5.5t-35.5 -5.5t-45.5 -16.5q-5 48 -8 95.5t-3 95.5q0 91 9.5 180t26.5 177q-34 -8 -63.5 -12.5t-58.5 -4.5t-57.5 4.5t-60.5 12.5q10 -57 15 -133t5 -157q0 -92 -6 -175.5t-16 -137.5q3 1 14.5 3t26 4
l29.5 4t24 2h382q44 0 81 -7t63.5 -21.5t41.5 -36.5t15 -52t-16.5 -55t-50.5 -25q-7 0 -11 1q23 11 35.5 33.5t12.5 39.5q0 28 -24.5 48t-66.5 20q-19 0 -41 -5.5t-40.5 -16.5t-30.5 -28t-12 -40z" />
    <glyph glyph-name="FL00F7h" unicode="&#xf7;" horiz-adv-x="623" 
d="M500 576q-8 0 -38 2t-84 12q8 -51 15 -110.5t7 -115.5q0 -17 -1 -37t-5.5 -38t-14.5 -31.5t-29 -19.5q-25 0 -40.5 14t-24.5 34.5t-12.5 44.5t-3.5 45q0 48 11.5 94t25.5 90q-27 4 -46 9.5t-35 13t-32 17.5l-37 24q-22 14 -44 25.5t-48 11.5q-20 0 -37 -11t-17 -34
q0 -15 10.5 -26t26.5 -11q14 0 24 9t10 22q0 8 -3 17q19 0 26.5 -10.5t7.5 -25.5q0 -36 -7 -60.5t-15 -46.5t-15 -43.5t-7 -51.5q0 -43 13 -81.5t38.5 -68t63.5 -46.5t88 -17q65 0 118 36q1 -8 1.5 -17t0.5 -20q0 -26 -2.5 -57t-5.5 -57t-6 -43.5t-4 -17.5q60 12 113 12
q28 0 59.5 -3t61.5 -9q-9 84 -13.5 150t-4.5 132q0 67 4 140t13 168q-34 -8 -56 -11t-50 -3z" />
    <glyph glyph-name="FL00F8h" unicode="&#xf8;" horiz-adv-x="912" 
d="M899 0q-9 64 -13.5 144t-4.5 156q0 81 5 152.5t14 137.5q-31 -9 -60.5 -13t-58.5 -4t-61.5 4t-63.5 13q9 -69 15 -145.5t6 -144.5q0 -73 -3.5 -132.5t-8.5 -113.5q-14 8 -28.5 14t-27.5 6t-24.5 -6t-28.5 -14q-2 25 -4 57t-3 65.5t-1.5 66t-0.5 57.5q0 42 2.5 77t7 68.5
t10 68t11.5 76.5q-32 -10 -64 -13.5t-61 -3.5t-58 3.5t-61 13.5q13 -72 17.5 -143t4.5 -147q0 -60 -3 -124t-8 -122q-17 10 -29 15t-23 5t-23 -4.5t-30 -14.5q-3 20 -5 51t-3.5 65.5t-2.5 68.5t-1 60q0 40 2 73.5t5.5 66.5l7.5 69t8 81q-29 -8 -58.5 -12.5t-58.5 -4.5
q-26 0 -55.5 4.5t-64.5 12.5q7 -74 11 -143t4 -147q0 -73 -5 -152t-11 -148h886z" />
    <glyph glyph-name="FL00F9h" unicode="&#xf9;" horiz-adv-x="1031" 
d="M724 -144q0 -26 11 -44t28.5 -29t39.5 -16t45 -5q61 0 95.5 20.5t51.5 55.5t21 81t4 98q0 8 -1.5 19.5t-11.5 11.5h-126q-10 56 -15 111.5t-5 115.5q0 69 7 145.5t22 169.5q-26 -10 -56.5 -12t-58.5 -2q-18 0 -31.5 1t-27 2.5t-27.5 4t-32 6.5q6 -50 10.5 -93.5t7 -83
t4 -75.5t1.5 -71q0 -53 -3.5 -104t-8.5 -115q-14 11 -26.5 15.5t-26.5 4.5t-27 -6t-27 -14q-8 35 -11.5 79t-3.5 94q0 49 2.5 99.5t7 99t9 92t9.5 78.5q-32 -7 -60 -10.5t-57 -3.5t-59 3.5t-65 10.5q11 -86 17 -176.5t6 -169.5q0 -64 -3.5 -115.5t-10.5 -80.5q-26 20 -47 20
q-11 0 -23 -5t-29 -15q-8 63 -13 123.5t-5 120.5q0 72 8 145t25 153q-32 -7 -59.5 -10.5t-55.5 -3.5q-29 0 -59.5 3.5t-71.5 10.5q2 -6 5.5 -31.5t7 -64.5t6 -90.5t2.5 -110.5q0 -68 -4.5 -142.5t-16.5 -150.5h738q37 0 79 -4t75 -22q25 -14 41.5 -34.5t16.5 -53.5
q0 -26 -14.5 -47t-46.5 -21q12 9 22 22.5t10 29.5q0 19 -8 34.5t-21.5 26t-30 16.5t-34.5 6q-20 0 -40 -7t-37 -20t-27.5 -31t-10.5 -39z" />
    <glyph glyph-name="FL00FAh" unicode="&#xfa;" horiz-adv-x="756" 
d="M746 202q-1 43 -15 75t-38 53.5t-54.5 32.5t-64.5 11q-30 0 -61.5 -9t-60.5 -27q-3 11 -5 28t-2 38q0 43 8 94t26 92l-69.5 -5.5t-58.5 -4t-51 -2t-48 -0.5t-48.5 0.5t-52 2t-60 4l-71.5 5.5q18 -29 37.5 -56.5t35 -57t26 -61t10.5 -68.5q0 -31 -10.5 -58.5t-35.5 -47.5
q0 20 -5.5 36t-30.5 16q-17 0 -27 -10.5t-10 -27.5q0 -24 14 -33t32 -9q22 0 43 8t39.5 21.5t33 30.5t25.5 35q20 35 32.5 74.5t21.5 74.5q3 -24 4.5 -53t1.5 -61q0 -46 -3 -95t-8 -94.5t-12.5 -85.5t-16.5 -68q38 6 65.5 8.5t51.5 2.5q18 0 36.5 -1.5t40 -4t48.5 -4
t62 -1.5q44 0 85 14t72 40.5t49.5 63.5t18.5 84zM550 156q0 -10 -1.5 -29.5t-7.5 -39t-16.5 -34t-28.5 -14.5q-15 0 -26.5 13.5t-19 35t-11 48.5t-3.5 54q0 22 3 43t8.5 36.5t14 25t19.5 9.5q22 0 35.5 -17.5t21 -41.5t10 -49t2.5 -40z" />
    <glyph glyph-name="FL00FBh" unicode="&#xfb;" horiz-adv-x="782" 
d="M531 590q14 -92 21.5 -167t7.5 -144q0 -68 -7 -134.5t-22 -144.5q38 5 67 8t55 3t53.5 -3t64.5 -8q-14 78 -21.5 144.5t-7.5 134.5q0 69 7.5 144t21.5 167q-35 -6 -59.5 -9t-51.5 -3q-26 0 -56.5 2.5t-72.5 9.5zM531 203q0 36 -13.5 68.5t-37.5 57t-56 38.5t-69 14
q-35 0 -62 -13t-56 -30q-9 64 -9 104q0 37 7 69.5t24 78.5q-39 -6 -67.5 -9t-54.5 -3t-55 3t-67 9q14 -59 20 -124.5t6 -134.5q0 -88 -8 -173.5t-20 -157.5q32 5 56.5 7.5t47.5 2.5q21 0 40.5 -1.5t41.5 -3.5t47.5 -3.5t58.5 -1.5q44 0 84.5 14t72 40.5t50.5 64t19 84.5z
M335 157q0 -11 -1.5 -30.5t-7 -38.5t-16 -33.5t-28.5 -14.5q-15 0 -25.5 12t-17 31t-10 43.5t-3.5 50.5q0 24 1.5 47t5.5 40.5t12 28.5t21 11q22 0 35.5 -17.5t21 -41.5t10 -48.5t2.5 -39.5z" />
    <glyph glyph-name="FL00FCh" unicode="&#xfc;" horiz-adv-x="534" 
d="M126 574q-58 0 -118 16q12 -66 18 -147t6 -164q0 -78 -6 -150t-16 -129q36 6 65 8t53 2q21 0 40 -1.5t39 -3.5t42.5 -3.5t50.5 -1.5q46 0 87 14t71.5 41t48 66t17.5 89q0 40 -14.5 72.5t-38.5 55.5t-56 35.5t-66 12.5q-29 0 -58.5 -9.5t-56.5 -30.5q-1 12 -1 23v23
q0 46 7 91t24 107q-34 -7 -68.5 -11.5t-69.5 -4.5zM221 207q0 16 0.5 34.5t4.5 34t12.5 26t24.5 10.5q17 0 30 -14.5t21.5 -36t13 -47t4.5 -47.5q0 -18 -1.5 -38.5t-6 -38.5t-14.5 -29.5t-26 -11.5q-24 0 -36.5 17t-18.5 41t-7 51.5t-1 48.5z" />
    <glyph glyph-name="FL00FFh" unicode="&#xff;" 
d="M423 254q4 -24 6 -43t2 -39q0 -32 -7 -70.5t-24 -101.5q47 6 78 9t58 3q28 0 57.5 -3t71.5 -9l-18 97t-13 82.5t-8 72t-3 65.5q0 60 10 120t33 137q-41 -8 -70.5 -11.5t-53.5 -3.5q-27 0 -57.5 5l-61.5 10.5t-62.5 10.5t-60.5 5q-36 0 -72 -7t-64.5 -24.5t-46 -46
t-17.5 -71.5q0 -49 19.5 -79t51.5 -47t72.5 -26t81.5 -16q-37 -17 -62.5 -33t-45 -33t-35.5 -37t-34 -45q-6 -8 -13 -19t-16 -21t-19.5 -17t-22.5 -7q-4 0 -14.5 3t-10.5 11q18 2 35.5 12t17.5 33q0 18 -12 30t-30 12q-26 -5 -39 -24t-13 -42q0 -27 14.5 -45.5t36 -29.5
t46.5 -16t46 -5q35 0 63.5 6.5t52.5 24.5q22 16 38.5 39t24.5 52q7 23 17.5 53t27.5 52q19 24 45 27zM318 431q0 19 3 40.5t10.5 40t19.5 30.5t29 12q19 0 29 -22.5t15 -52.5t6 -59t1 -41q0 -42 -4.5 -63.5t-20.5 -21.5q-22 0 -38.5 14.5t-27.5 35.5t-16.5 45t-5.5 42z" />
    <glyph glyph-name="numbersign" unicode="&#x412;" horiz-adv-x="557" 
d="M547 167q0 42 -13.5 67t-37.5 40t-56.5 23t-69.5 15l-27 5q34 9 62.5 21.5t49.5 30t33 41.5t12 57q0 30 -11 52.5t-30 38.5t-44.5 24t-53.5 8q-69 -3 -124.5 -6.5t-92.5 -3.5q-18 0 -32.5 1t-29 2.5t-31 3l-38.5 3.5q8 -32 12.5 -70.5t7 -80t3 -82t0.5 -74.5
q0 -71 -5.5 -142t-17.5 -141q33 5 64.5 7.5t64.5 2.5q39 0 82 -2.5t94 -7.5q41 0 82 7.5t73.5 26t53 51t20.5 82.5zM273 39q-9 0 -17 6t-14 15t-10.5 18.5t-5.5 17.5q-1 4 -2.5 16t-3 28.5t-3 35.5t-1.5 37q0 32 5.5 56.5t20.5 24.5q24 0 41 -18.5t28.5 -44.5t16.5 -53
t5 -45q0 -12 -3.5 -28t-11 -30.5t-19 -25t-26.5 -10.5zM285 544q23 0 34 -19.5t11 -40.5q0 -17 -4 -43.5t-15 -51.5t-29.5 -42.5t-46.5 -16.5q-8 0 -10.5 15.5t-2.5 33.5q0 11 0.5 21.5t1 17.5t1 8.5t-0.5 -4.5q0 13 2.5 33.5t9 40t18.5 34t31 14.5z" />
    <glyph glyph-name="percent" unicode="&#x414;" horiz-adv-x="570" 
d="M239 -213q35 0 72 17.5t74 39l71 40t63 21.5q13 1 17.5 28.5t4.5 67.5q0 35 -2.5 74.5t-5.5 74.5t-5.5 60.5t-2.5 33.5q0 35 2 75t5.5 79t7 74t7.5 61t7.5 40t5.5 11q-29 -10 -60 -14.5t-62 -4.5q-45 0 -92 11q-26 6 -49.5 10t-49.5 4q-51 0 -94.5 -18.5t-75 -51
t-49.5 -76t-18 -93.5q0 -61 34 -111t87 -76q24 -9 53.5 -16.5t58.5 -7.5q24 0 46 6.5t39 23.5q9 -67 13.5 -105.5t6.5 -58.5t2.5 -26.5t0.5 -8.5q0 -31 -8.5 -58.5t-25.5 -48t-42.5 -32.5t-58.5 -12q-16 0 -40.5 8t-48 22t-40 32.5t-16.5 39.5l5 -2.5t13.5 -6t20.5 -6.5
t26 -3q11 0 22.5 2.5t23.5 8.5q23 14 32.5 38t9.5 50q0 24 -8 46t-23 39t-36 27.5t-46 10.5q-23 0 -41 -11t-30 -28.5t-18.5 -38.5t-6.5 -42q0 -45 18.5 -85t49.5 -69.5t71.5 -47t84.5 -17.5zM285 193q-22 0 -35 20t-19.5 47t-8 54.5t-1.5 42.5q0 22 3 54t13.5 62t29 51
t50.5 21q4 0 9.5 -0.5t11 -2t9.5 -5t4 -9.5q-14 -71 -21.5 -139t-7.5 -137q-2 -33 -12 -46t-25 -13z" />
    <glyph glyph-name="ampersand" unicode="&#x415;" horiz-adv-x="578" 
d="M10 281q0 -64 26 -116t70 -88.5t100.5 -56.5t118.5 -20q31 0 67.5 10.5t67 30.5t51 49.5t20.5 67.5q0 29 -18 52.5t-50 23.5q-29 0 -48.5 -21t-19.5 -50q0 -52 60 -52q2 -4 2 -12q0 -12 -8.5 -22t-20.5 -16.5t-26 -10.5t-25 -4q-42 0 -68.5 23t-42.5 57.5t-22 74t-6 71.5
q32 -10 66 -16.5t68 -6.5q32 0 66.5 9.5t63.5 28t47.5 46t18.5 63.5q0 46 -22.5 82t-57.5 61t-78 38t-85 13q-69 0 -127 -22t-100 -62t-65 -97.5t-23 -127.5zM237 315q-1 9 -1 17v16q0 19 1.5 37.5t6.5 41.5q2 10 9.5 32t19 43.5t25.5 38t29 16.5q17 0 26 -14.5t13.5 -34
t5 -39t0.5 -29.5q0 -20 -2.5 -44.5t-11 -47t-25 -37.5t-43.5 -15q-13 0 -29 4t-24 15z" />
    <glyph glyph-name="quotesingle" unicode="&#x451;" horiz-adv-x="578" 
d="M10 281q0 -64 26 -116t70 -88.5t100.5 -56.5t118.5 -20q31 0 67.5 10.5t67 30.5t51 49.5t20.5 67.5q0 29 -18 52.5t-50 23.5q-29 0 -48.5 -21t-19.5 -50q0 -27 14.5 -39.5t39.5 -12.5q6 -3 7 -6t1 -6q0 -12 -8.5 -22t-20.5 -16.5t-26 -10.5t-25 -4q-42 0 -68.5 23
t-42.5 57.5t-22 74t-6 71.5q32 -10 66 -16.5t68 -6.5q32 0 66.5 9.5t63.5 28t47.5 46t18.5 63.5q0 46 -22.5 82t-57.5 61t-78 38t-85 13q-69 0 -127 -22t-100 -62t-65 -97.5t-23 -127.5zM237 315q-1 9 -1 17v16q0 19 1.5 37.5t6.5 41.5q2 10 9.5 32t19 43.5t25.5 38t29 16.5
q17 0 26 -14.5t13.5 -34t5 -39t0.5 -29.5q0 -20 -3 -45t-11.5 -47t-24.5 -37t-43 -15q-13 0 -29 4t-24 15zM333 696q0 -32 19.5 -53t51.5 -21t52 22t20 53q0 32 -21.5 53t-53.5 21q-31 0 -49.5 -23t-18.5 -52zM173 696q0 -32 19.5 -53t51.5 -21t52 22t20 53q0 32 -21.5 53
t-53.5 21q-31 0 -49.5 -23t-18.5 -52z" />
    <glyph glyph-name="parenleft" unicode="&#x416;" horiz-adv-x="948" 
d="M291 328q-43 0 -83 -15t-76 -38q-34 -21 -57.5 -52.5t-38 -68t-21 -76t-6.5 -77.5q36 11 64.5 16t55.5 5t57 -5.5t69 -16.5q-5 25 -8.5 49.5t-3.5 47.5q0 48 17 88.5t61 66.5q9 5 18 9t17 4q18 0 26 -18v-22q0 -58 -10 -113.5t-27 -111.5q66 21 132 21q64 0 127 -21
q-11 57 -19 113.5t-8 113.5v22q6 14 22 14t30 -9q45 -26 62.5 -67t17.5 -89q0 -24 -4 -48.5t-9 -47.5q42 10 70.5 14.5t52.5 4.5q26 0 52.5 -5t64.5 -16q4 18 6 34.5t2 33.5q0 70 -31.5 123t-85.5 86q-37 23 -81 35t-93 12q-10 0 -19.5 -0.5t-19.5 -1.5q-1 5 -1.5 8.5
t-0.5 8.5q0 23 10 46t24 43q7 10 17.5 21t22 20t23 15t22.5 6q-12 -23 -12 -44q0 -18 7.5 -35t21 -30t32 -20.5t39.5 -7.5q45 0 66 30.5t21 69.5q0 22 -6 43.5t-18 39.5t-29 30t-38 14q-5 1 -10 1h-9q-45 0 -87.5 -22t-68.5 -54q-20 -24 -34 -53t-23 -60q4 67 11.5 135
t29.5 134q3 7 7.5 16t11.5 17t14.5 13.5t16.5 5.5q7 0 15 -6q-11 -5 -19.5 -13.5t-8.5 -19.5t7 -20t23 -9q21 0 32 14.5t11 34.5q0 22 -13.5 37t-33.5 23q-5 1 -9 1h-8q-21 0 -39 -8t-34.5 -19.5t-32 -24t-33.5 -22.5q-65 -34 -134 -34q-20 0 -41 3q0 1 -1 1v0v-1
q0 -5 4 -26t8.5 -55t8.5 -78.5t4 -95.5q-14 28 -24.5 58t-30.5 55q-23 31 -60 51.5t-75 20.5q-6 1 -12 1.5t-11 0.5q-27 0 -48 -11.5t-35.5 -29.5t-22 -41t-7.5 -46q0 -38 22 -67.5t72 -33.5q21 0 38 7.5t29.5 20.5t19 30t6.5 36q0 25 -12 49q26 -8 47.5 -30t35.5 -46
q14 -22 22 -46t8 -49z" />
    <glyph glyph-name="parenright" unicode="&#x417;" horiz-adv-x="552" 
d="M325 310q36 4 71 13t62 26.5t43.5 43.5t16.5 64q0 46 -27.5 72.5t-66.5 40t-83 17t-77 3.5q-29 0 -67 -4.5t-72 -18t-57.5 -38t-23.5 -64.5q0 -19 8.5 -35.5t22 -28.5t31 -19t36.5 -7q18 0 36 6.5t33 18t24 28t9 36.5q-6 34 -23 52.5t-57 24.5q22 7 47 7q45 0 76 -26.5
t31 -73.5q0 -27 -11 -49t-30 -37.5t-45 -24.5t-56 -9q-24 0 -48.5 4.5t-47.5 14.5q5 -12 7.5 -20.5t2.5 -16.5t-2.5 -16.5t-7.5 -22.5q36 15 79 15q30 0 59 -8t51.5 -24.5t36.5 -41.5t14 -59q0 -28 -11 -50.5t-29 -38.5t-41 -24.5t-48 -8.5q-39 0 -72 21q28 0 51 8
t39.5 20.5t25.5 29.5t9 37q0 17 -8 34.5t-23 31.5t-36.5 23t-49.5 9q-23 0 -43.5 -8.5t-37 -22.5t-26.5 -32t-10 -38q6 -49 31 -77.5t61 -43.5t79.5 -19t85.5 -4q37 0 85 4t90 19.5t71 46t29 82.5q0 41 -21 69t-53 46t-70 28t-73 15z" />
    <glyph glyph-name="asterisk" unicode="&#x418;" horiz-adv-x="724" 
d="M367 180q8 -35 19.5 -67.5t30 -57.5t45 -40t63.5 -15q34 0 67 7t59.5 22.5t43 40t16.5 59.5q0 31 -15 55.5t-50 24.5q-22 0 -39.5 -15.5t-17.5 -38.5t15.5 -37t35.5 -14q8 0 16.5 2.5t16.5 9.5q0 -20 -10.5 -36t-33.5 -16q-26 0 -41 15.5t-22.5 38t-9 47t-1.5 42.5
q0 56 5.5 112t13.5 112q5 39 15 80t18 79q-33 -7 -65.5 -10.5t-66.5 -3.5q-33 0 -66 3.5t-67 10.5q5 -21 8 -46t5 -51.5t3 -51.5t1 -45q0 -31 -1.5 -69.5t-7.5 -72.5t-17.5 -57t-32.5 -23q-15 0 -25 9.5t-15.5 25t-8 35.5t-2.5 42q0 20 1.5 40t3.5 37.5t4 31l3 20.5l15 88
t24 87q-38 -7 -74.5 -10.5t-73.5 -3.5q-36 0 -71.5 3.5t-71.5 10.5q23 -40 30.5 -85.5t7.5 -93.5q-1 -56 -10 -110.5t-9 -108.5q0 -32 8.5 -66t25.5 -62t44 -46t65 -18t68 16.5t53.5 43t41.5 58.5t33 62z" />
    <glyph glyph-name="plus" unicode="&#x419;" horiz-adv-x="724" 
d="M367 180q8 -35 19.5 -67.5t30 -57.5t45 -40t63.5 -15q34 0 67 7t59.5 22.5t43 40t16.5 59.5q0 31 -15 55.5t-50 24.5q-22 0 -39.5 -15.5t-17.5 -38.5t15.5 -37t35.5 -14q8 0 16.5 2.5t16.5 9.5q0 -20 -10.5 -36t-33.5 -16q-26 0 -41 15.5t-22.5 38t-9 47t-1.5 42.5
q0 56 5.5 112t13.5 112q5 39 15 80t18 79q-33 -7 -65.5 -10.5t-66.5 -3.5q-33 0 -66 3.5t-67 10.5q5 -21 8 -46t5 -51.5t3 -51.5t1 -45q0 -31 -1.5 -69.5t-7.5 -72.5t-17.5 -57t-32.5 -23q-15 0 -25 9.5t-15.5 25t-8 35.5t-2.5 42q0 20 1.5 40t3.5 37.5t4 31l3 20.5l15 88
t24 87q-36 -7 -72 -10.5t-72 -3.5q-71 0 -147 14q23 -40 30.5 -85.5t7.5 -93.5q-1 -56 -10 -110.5t-9 -108.5q0 -32 8.5 -66t25.5 -62t44 -46t65 -18t68 16.5t53.5 43t41.5 58.5t33 62zM218 807q-54 -2 -81.5 -24.5t-30.5 -51.5q0 -32 18 -55t48 -38t69 -22.5t81 -7.5h4
q47 1 93 10.5t82.5 27.5t59 45t22.5 62q0 40 -30.5 60t-74.5 20q-38 0 -71 -16t-43 -46q18 12 39 12q17 0 29.5 -10t12.5 -33q0 -27 -14 -44.5t-35 -27.5t-45.5 -14t-45.5 -4q-20 0 -39 1.5t-35 11.5q13 0 30 4t32.5 12t27 22t12.5 34q0 18 -8.5 31.5t-23 22.5t-33.5 13.5
t-40 4.5h-10z" />
    <glyph glyph-name="comma" unicode="&#x41a;" horiz-adv-x="629" 
d="M268 328q1 19 13 49t31 58t41.5 48t44.5 20q-13 -22 -13 -50q0 -18 6 -35.5t17 -31t28 -21.5t38 -8q24 0 42.5 10.5t32 27.5t20.5 38.5t7 43.5q0 58 -34.5 85.5t-88.5 27.5q-44 0 -77.5 -19.5t-59 -50t-43.5 -67t-30 -70.5q-1 29 -3.5 63.5t-2.5 69.5q0 32 3.5 64t14 60
t29 51t48.5 38q-6 -14 -6 -24q0 -17 12.5 -26.5t27.5 -9.5q20 0 30 12t10 31q0 30 -14.5 45t-36.5 18q-5 1 -14 1q-21 0 -40.5 -8t-38.5 -19.5t-37.5 -24.5t-37.5 -23q-45 -29 -86.5 -39t-90.5 -14q16 -86 22.5 -172.5t6.5 -173.5q0 -77 -4 -152t-11 -150q36 7 67 10.5
t60 3.5q28 0 56.5 -3t60.5 -11l-18 114t-10 117q5 23 12.5 29.5t16.5 6.5q13 0 26 -6t22 -13q32 -29 42.5 -64t10.5 -74q0 -26 -3 -54l-6 -56q35 8 64 11t58 3q30 0 62 -3.5t71 -10.5q1 6 1 11v12q0 60 -20 117t-56 101t-86 71t-110 27q-19 0 -38 -2.5t-39 -8.5z" />
    <glyph glyph-name="minus" unicode="&#x41b;" horiz-adv-x="653" 
d="M643 590q-82 -5 -146.5 -7.5t-127.5 -2.5q-34 0 -68 0.5t-71 2t-77.5 3.5t-86.5 4q75 -48 118 -123.5t56 -168.5q2 -14 3 -31t1 -36q0 -24 -3 -49.5t-10 -48.5t-19 -42t-30 -30q23 34 23 69q0 22 -8.5 38t-22 27t-30.5 16.5t-35 5.5q-25 0 -44 -9.5t-31.5 -25t-19 -35
t-6.5 -40.5q0 -51 31 -79t74 -28q48 0 88 25t71 63q33 40 56.5 92t39.5 106t23.5 105.5t7.5 91.5q11 -51 15 -109t4 -115q-1 -67 -6 -130.5t-21 -127.5q38 5 68.5 8t57.5 3q29 0 56.5 -3t60.5 -9q-5 78 -8 134.5t-3 110.5q0 34 1 70t3.5 77t6.5 89.5z" />
    <glyph glyph-name="period" unicode="&#x41c;" horiz-adv-x="840" 
d="M489 290l-21 91.5l-16.5 73l-14.5 65.5l-16 71q-44 -9 -76 -9q-31 0 -64 9q-29 5 -59 15.5t-61 15.5q-15 0 -30 -3.5t-27 -11t-20 -19.5t-8 -29q0 -21 12 -37.5t34 -16.5q20 0 32 13t12 33q0 3 -4 12.5t-4 15.5q0 4 3 4q6 0 16.5 -4.5t20 -11t17 -14.5t7.5 -15
q-46 -38 -85 -83.5t-67 -96.5t-44 -106.5t-16 -113.5q0 -70 25 -138q28 7 52.5 10.5t48.5 3.5t50 -3.5t58 -10.5q-14 57 -20 115t-6 118q0 68 7 134.5t20 130.5q32 -124 45.5 -249l26.5 -249q29 6 48.5 9.5t37.5 3.5q17 0 35.5 -3.5l46.5 -8.5q2 0 3.5 -0.5t3.5 -0.5
q7 62 15 119.5t19 115t27 117.5t39 127q8 -53 11 -104.5t3 -103.5q0 -69 -4.5 -136t-11.5 -135q65 14 125 14q28 0 55 -3t53 -11q-9 85 -15.5 167.5t-6.5 166.5q0 63 4.5 126.5t15.5 129.5q-51 -12 -109 -12q-32 0 -64 3.5t-62 8.5l-25 -79l-24 -72l-23.5 -71z" />
    <glyph glyph-name="slash" unicode="&#x41d;" horiz-adv-x="658" 
d="M262 590q-41 -5 -71.5 -8t-59.5 -3q-26 0 -53 2.5t-59 8.5q12 -63 17.5 -126.5t5.5 -127.5q0 -85 -7 -168.5t-16 -167.5q64 9 122 9q55 0 115 -9q-3 17 -6 43t-5 55.5t-3 61t-1 59.5q0 26 1 46.5t3 34.5q23 -7 41 -13t43 -6q20 0 40 5.5t38 13.5q0 -66 -0.5 -114.5
t-2.5 -84t-5.5 -60t-9.5 -41.5q35 5 67 7.5t64 2.5q58 0 111 -10q-24 142 -24 289q0 76 7 151t23 150q-34 -6 -63 -9t-58 -3q-56 0 -122 12q8 -38 11.5 -80.5t3.5 -84.5v-36t-2 -34q-19 4 -40 12.5t-42 8.5q-20 0 -40.5 -7.5t-40.5 -12.5q0 25 1 56t3 62.5t5.5 61.5t8.5 54z
" />
    <glyph glyph-name="zero" unicode="&#x41e;" 
d="M341 0q64 0 125 18.5t107.5 56t75 93.5t28.5 130q0 76 -28.5 131t-75.5 91t-107.5 53t-124.5 17q-65 0 -124.5 -17t-105.5 -53t-73 -91t-27 -131q0 -72 27 -127.5t73 -93.5t105.5 -57.5t124.5 -19.5zM341 555q21 0 37.5 -23t27 -60t16 -84t5.5 -96q0 -48 -5.5 -94.5
t-16 -83t-26 -58.5t-36.5 -22q-22 0 -38 22.5t-26.5 59t-16 83.5t-5.5 96t5 95.5t15.5 83t26.5 59t37 22.5z" />
    <glyph glyph-name="one" unicode="&#x41f;" horiz-adv-x="706" 
d="M359 598q-24 6 -43 10t-35.5 7t-32 4.5t-32.5 1.5q-22 0 -57 -6t-68 -19.5t-57 -35t-24 -51.5q0 -22 14.5 -38.5t37.5 -16.5q20 0 36 15t16 35q0 23 -10 33t-28 18q10 11 23 11q14 0 23.5 -10t16.5 -27q14 -34 16.5 -77.5t2.5 -79.5q0 -91 -11 -185t-29 -187q31 5 61 8.5
t61 3.5t62 -3.5t62 -8.5q-16 75 -23 157t-7 165q0 9 0.5 39t2 66t5 70.5t9.5 52.5q13 -8 20 -16.5t22 -8.5q7 0 18 3t21 7q6 0 9 -13.5t5 -31t3 -33.5t1 -20q3 -54 3 -112q0 -82 -5.5 -165t-16.5 -160q70 12 125 12q29 0 57.5 -3t62.5 -9q-17 69 -25 139t-8 141
q0 170 47 328q-39 -16 -78.5 -25.5t-81.5 -9.5q-43 0 -86 8t-85 17z" />
    <glyph glyph-name="two" unicode="&#x420;" horiz-adv-x="579" 
d="M11 -222q39 8 69.5 12t59.5 4q30 0 62.5 -4t77.5 -12q-7 34 -14 82t-13 98.5t-9.5 98t-3.5 81.5q30 -24 60.5 -36t69.5 -12q47 0 84 21t62.5 55t38.5 76.5t13 85.5t-12.5 86.5t-36.5 78.5t-60 59t-83 28q-20 0 -38.5 -6.5t-35.5 -16.5t-32.5 -23l-29.5 -25q0 3 -0.5 8.5
t-0.5 13.5q0 23 2.5 60t10 71.5t21.5 59.5t37 25q13 0 13 -6t-7 -16.5t-7 -25.5q1 -20 12.5 -28.5t26.5 -8.5q18 0 34.5 12t16.5 38q0 17 -7.5 29.5t-20 21t-27.5 12.5t-30 4q-49 0 -91.5 -25t-83.5 -55l-57.5 -40.5t-58.5 -30.5q14 -82 20 -166.5t6 -170.5q0 -130 -11 -259
t-27 -254zM229 331q0 27 3.5 58.5t12 57.5t22 43.5t33.5 17.5q15 0 27 -15t19.5 -40t11.5 -56.5t4 -64.5q0 -34 -4 -66t-11.5 -57.5t-19.5 -41t-27 -15.5q-20 0 -34 18.5t-22 45.5t-11.5 58t-3.5 57z" />
    <glyph glyph-name="three" unicode="&#x421;" horiz-adv-x="576" 
d="M10 291q0 -63 24 -116.5t65 -92.5t96 -60.5t117 -21.5q46 0 89.5 8t78.5 25.5t58 45.5t28 69q0 25 -16.5 43t-45.5 18q-20 0 -30.5 -15t-10.5 -33q0 -17 9.5 -30.5t29.5 -13.5q-10 -32 -38 -47t-61 -15q-46 0 -78 24t-52.5 61t-29.5 79.5t-9 80.5q0 22 3 49.5t10.5 55
t20 52.5t31.5 43q33 30 73 30q15 0 29.5 -5t28.5 -17q-12 3 -22 3q-23 0 -42 -10.5t-33 -28t-22 -39.5t-8 -45q0 -21 8 -40.5t22 -33.5t33 -22.5t41 -8.5q26 0 47.5 11t36.5 29.5t23.5 42t8.5 47.5q0 44 -22 77.5t-55.5 55.5t-74.5 33t-78 11q-57 0 -108 -24t-90 -64
t-62 -92t-23 -108v-11z" />
    <glyph glyph-name="four" unicode="&#x422;" horiz-adv-x="1102" 
d="M412 0q38 6 64 9.5t51 3.5q23 0 49 -3t65 -10q-9 54 -12.5 111t-3.5 116q0 78 5.5 156t12.5 151q22 -24 53 -24q21 0 38 13q3 -1 5 -15.5t3.5 -32.5t2 -34.5t0.5 -22.5q-6 -101 -11.5 -163t-5.5 -103q0 -35 2 -55.5t6 -35.5t9 -28.5t11 -32.5q12 16 26 23t27 7
q25 -3 46 -8t40 -10t38 -8.5t41 -3.5q23 0 44.5 7t37.5 20.5t25.5 33t9.5 45.5q0 23 -15.5 41.5t-38.5 18.5q-19 0 -34 -13.5t-15 -33.5q0 -23 14.5 -34.5t35.5 -13.5q1 0 1 -1v0q-20 -14 -37 -14q-21 0 -35 14.5t-22.5 39t-11.5 56.5t-3 66q0 33 2.5 65.5t5.5 60.5t6 49.5
t5 31.5q1 4 3.5 16.5l5.5 27l5.5 27.5l3.5 18t4 16.5l6.5 24.5l6.5 24.5t4 16.5q-59 -15 -122.5 -21.5t-126.5 -6.5q-40 0 -78 2.5t-73 5.5q-50 4 -83 8l-54 6.5t-32.5 4t-17.5 1.5q-10 1 -32.5 3.5t-47 4.5t-46.5 4t-31 2q-25 0 -51.5 -1.5t-52.5 -7t-50 -16t-43 -28.5
q-16 -15 -26.5 -31.5t-10.5 -38.5q0 -23 14 -36.5t34 -13.5t35 13.5t15 34.5q0 19 -9 29t-26 22q8 4 17 4q17 0 27 -13.5t15.5 -33.5t7 -44.5t1.5 -45.5q0 -107 -9.5 -207.5t-31.5 -209.5q31 5 58.5 9t53.5 4q29 0 58.5 -3.5t61.5 -9.5q-15 132 -15 269q0 86 3.5 160
t23.5 140q10 -15 21.5 -21.5t23.5 -6.5q10 0 19.5 4t17.5 10q7 -10 9.5 -44t2.5 -80q0 -42 -2 -90t-4.5 -96.5t-6 -93.5t-6.5 -79t-5 -53.5t-2 -18.5z" />
    <glyph glyph-name="five" unicode="&#x423;" horiz-adv-x="592" 
d="M228 -227q28 0 53 9t48.5 22.5t45.5 29t45 29.5q20 11 40 20t43 9l26 -3q5 0 9 14.5t6.5 33.5t4 37.5t1.5 25.5q0 31 -2.5 66t-6 71.5t-6 72.5t-2.5 69q0 73 16 154.5t36 156.5q-23 -9 -48.5 -13t-51.5 -4q-59 0 -115 17q-15 -60 -24 -124t-14 -127q0 -42 -5.5 -71.5
t-29.5 -29.5q-22 7 -36 22t-21.5 34.5t-10.5 40.5t-3 41q0 54 15.5 108.5l29.5 105.5q-19 -13 -38 -17.5t-39 -4.5q-34 0 -66.5 11t-66.5 11q-12 0 -25.5 -5l-24.5 -9q14 -23 22.5 -45.5t8.5 -50.5q0 -32 -5.5 -63t-5.5 -63q0 -38 12.5 -74.5t35.5 -66t55.5 -47.5t73.5 -18
q38 0 66 17l59 37q12 -45 18 -92t6 -94q0 -33 -5.5 -69.5t-20.5 -67.5t-41.5 -51.5t-68.5 -20.5q-9 0 -22.5 4t-26.5 10.5t-22.5 16t-9.5 20.5q15 -10 26 -13t28 -3q23 0 40 9.5t28.5 25t17 35.5t5.5 41q0 23 -9 44.5t-24.5 38t-36 26.5t-44.5 10q-26 0 -45.5 -13t-33 -32.5
t-20.5 -43.5t-7 -46q0 -33 13 -63t35 -52.5t51.5 -35.5t63.5 -13z" />
    <glyph glyph-name="six" unicode="&#x424;" horiz-adv-x="851" 
d="M840 324q0 42 -11.5 89t-35 86t-59 65t-84.5 26q-20 0 -38.5 -7t-35 -18t-31.5 -25t-29 -29q-1 9 -1.5 19t-0.5 21q0 28 3.5 57.5t12.5 56.5t24 48t37 32q0 -10 -5 -19.5t-5 -20.5q0 -23 12.5 -34t29.5 -11t32.5 12.5t15.5 38.5q0 34 -25 49.5t-55 15.5q-21 0 -42 -7
t-41 -16.5t-39.5 -20.5t-38.5 -19q-33 -14 -63.5 -17t-68.5 -3q9 -33 16 -73t7 -78q0 -8 -0.5 -15.5t-1.5 -15.5q-24 32 -50.5 55.5t-68.5 23.5q-46 0 -81.5 -23t-60 -58.5t-37 -78.5t-12.5 -84q0 -44 13.5 -90.5t39.5 -84.5t64.5 -62t88.5 -24q34 0 61 7.5t51 31.5
q2 -23 3.5 -45.5t1.5 -46.5q0 -43 -5.5 -96.5t-19.5 -135.5q35 7 67 10t63 3q61 0 119 -13q-11 50 -18 89.5t-11.5 71.5t-6.5 58.5t-2 51.5q0 13 0.5 26t1.5 27q28 -23 60 -30t67 -7q48 0 84 21t60.5 55t36.5 76.5t12 84.5zM273 500q19 0 30.5 -18t17.5 -45t8 -58.5t2 -58.5
q0 -24 -2 -55t-8.5 -59t-18 -47.5t-29.5 -19.5q-23 0 -35.5 18t-19.5 45t-8.5 58.5t-1.5 59.5q0 23 1.5 54t8.5 58.5t19.5 47t35.5 20.5zM577 501q19 0 30.5 -18t17.5 -45t8 -58.5t2 -58.5q0 -24 -2.5 -55t-9 -59.5t-18 -48t-29.5 -19.5q-23 0 -35.5 18t-19 45t-8 59
t-1.5 60q0 23 1.5 54t8.5 58.5t19.5 47t35.5 20.5z" />
    <glyph glyph-name="seven" unicode="&#x425;" horiz-adv-x="682" 
d="M400 0q47 8 81.5 11.5t61.5 3.5t55 -5t69 -10q0 56 -18.5 109.5t-51.5 98t-79 75.5t-101 42q109 23 167.5 88t58.5 177q-42 -8 -71.5 -11t-57.5 -3t-56 3t-73 11q11 -14 15.5 -45.5t4.5 -69.5q0 -21 -3 -42.5t-10 -38.5t-18.5 -27.5t-28.5 -10.5q-20 0 -33 10.5t-20.5 27
t-10.5 38t-3 44.5q0 35 4.5 66.5t8.5 47.5q-38 -6 -67 -9t-57 -3t-58.5 2.5t-72.5 7.5q0 -47 17.5 -92t48 -81t71.5 -60t88 -30q-51 -13 -96 -41.5t-79.5 -70.5t-54.5 -95.5t-20 -117.5q42 6 73.5 9.5t62.5 3.5q55 0 126 -13q-2 32 -5.5 62t-3.5 59q0 19 4 45.5t13.5 51.5
t25 44t38.5 24q22 -8 35.5 -29t21 -46.5t10 -52t2.5 -45.5q0 -26 -5 -53.5t-9 -59.5z" />
    <glyph glyph-name="eight" unicode="&#x426;" horiz-adv-x="756" 
d="M441 -145q0 -27 16 -45t39.5 -28.5t50 -15t47.5 -4.5q59 0 90 25.5t45 65.5q13 38 15.5 82.5t2.5 87.5v18q-27 1 -48 1h-37h-75q-2 45 -4.5 83.5t-2.5 74.5q0 59 1 109.5t4.5 97t9.5 91.5t16 92q-35 -9 -61.5 -13t-57.5 -4t-61.5 4t-63.5 13q3 -14 7.5 -60t8.5 -107.5
t7 -129.5t3 -125q0 -39 -0.5 -74t-4.5 -52q-27 11 -45.5 16.5t-35.5 5.5t-35.5 -5.5t-45.5 -16.5q-5 48 -8 95.5t-3 95.5q0 91 9.5 180t26.5 177q-34 -8 -63.5 -12.5t-58.5 -4.5t-57.5 4.5t-60.5 12.5q10 -57 15 -133t5 -157q0 -92 -6 -175.5t-16 -137.5q3 1 14.5 3t26 4
l29.5 4t24 2h382q44 0 81 -7t63.5 -21.5t41.5 -36.5t15 -52t-16.5 -55t-50.5 -25q-7 0 -11 1q23 11 35.5 33.5t12.5 39.5q0 28 -24.5 48t-66.5 20q-19 0 -41 -5.5t-40.5 -16.5t-30.5 -28t-12 -40z" />
    <glyph glyph-name="nine" unicode="&#x427;" horiz-adv-x="623" 
d="M500 576q-8 0 -38 2t-84 12q8 -51 15 -110.5t7 -115.5q0 -17 -1 -37t-5.5 -38t-14.5 -31.5t-29 -19.5q-25 0 -40.5 14t-24.5 34.5t-12.5 44.5t-3.5 45q0 48 11.5 94t25.5 90q-27 4 -46 9.5t-35 13t-32 17.5l-37 24q-22 14 -44 25.5t-48 11.5q-20 0 -37 -11t-17 -34
q0 -15 10.5 -26t26.5 -11q14 0 24 9t10 22q0 8 -3 17q19 0 26.5 -10.5t7.5 -25.5q0 -36 -7 -60.5t-15 -46.5t-15 -43.5t-7 -51.5q0 -43 13 -81.5t38.5 -68t63.5 -46.5t88 -17q65 0 118 36q1 -8 1.5 -17t0.5 -20q0 -26 -2.5 -57t-5.5 -57t-6 -43.5t-4 -17.5q60 12 113 12
q28 0 59.5 -3t61.5 -9q-9 84 -13.5 150t-4.5 132q0 67 4 140t13 168q-34 -8 -56 -11t-50 -3z" />
    <glyph glyph-name="colon" unicode="&#x428;" horiz-adv-x="912" 
d="M899 0q-9 64 -13.5 144t-4.5 156q0 81 5 152.5t14 137.5q-31 -9 -60.5 -13t-58.5 -4t-61.5 4t-63.5 13q9 -69 15 -145.5t6 -144.5q0 -73 -3.5 -132.5t-8.5 -113.5q-14 8 -28.5 14t-27.5 6t-24.5 -6t-28.5 -14q-2 25 -4 57t-3 65.5t-1.5 66t-0.5 57.5q0 42 2.5 77t7 68.5
t10 68t11.5 76.5q-32 -10 -64 -13.5t-61 -3.5t-58 3.5t-61 13.5q13 -72 17.5 -143t4.5 -147q0 -60 -3 -124t-8 -122q-17 10 -29 15t-23 5t-23 -4.5t-30 -14.5q-3 20 -5 51t-3.5 65.5t-2.5 68.5t-1 60q0 40 2 73.5t5.5 66.5l7.5 69t8 81q-29 -8 -58.5 -12.5t-58.5 -4.5
q-26 0 -55.5 4.5t-64.5 12.5q7 -74 11 -143t4 -147q0 -73 -5 -152t-11 -148h886z" />
    <glyph glyph-name="semicolon" unicode="&#x429;" horiz-adv-x="1031" 
d="M724 -144q0 -26 11 -44t28.5 -29t39.5 -16t45 -5q61 0 95.5 20.5t51.5 55.5t21 81t4 98q0 8 -1.5 19.5t-11.5 11.5h-126q-10 56 -15 111.5t-5 115.5q0 69 7 145.5t22 169.5q-26 -10 -56.5 -12t-58.5 -2q-18 0 -31.5 1t-27 2.5t-27.5 4t-32 6.5q6 -50 10.5 -93.5t7 -83
t4 -75.5t1.5 -71q0 -53 -3.5 -104t-8.5 -115q-14 11 -26.5 15.5t-26.5 4.5t-27 -6t-27 -14q-8 35 -11.5 79t-3.5 94q0 49 2.5 99.5t7 99t9 92t9.5 78.5q-32 -7 -60 -10.5t-57 -3.5t-59 3.5t-65 10.5q11 -86 17 -176.5t6 -169.5q0 -64 -3.5 -115.5t-10.5 -80.5q-26 20 -47 20
q-11 0 -23 -5t-29 -15q-8 63 -13 123.5t-5 120.5q0 72 8 145t25 153q-32 -7 -59.5 -10.5t-55.5 -3.5q-29 0 -59.5 3.5t-71.5 10.5q2 -6 5.5 -31.5t7 -64.5t6 -90.5t2.5 -110.5q0 -68 -4.5 -142.5t-16.5 -150.5h738q37 0 79 -4t75 -22q25 -14 41.5 -34.5t16.5 -53.5
q0 -26 -14.5 -47t-46.5 -21q12 9 22 22.5t10 29.5q0 19 -8 34.5t-21.5 26t-30 16.5t-34.5 6q-20 0 -40 -7t-37 -20t-27.5 -31t-10.5 -39z" />
    <glyph glyph-name="less" unicode="&#x42a;" horiz-adv-x="756" 
d="M746 202q-1 43 -15 75t-38 53.5t-54.5 32.5t-64.5 11q-30 0 -61.5 -9t-60.5 -27q-3 11 -5 28t-2 38q0 43 8 94t26 92l-69.5 -5.5t-58.5 -4t-51 -2t-48 -0.5t-48.5 0.5t-52 2t-60 4l-71.5 5.5q18 -29 37.5 -56.5t35 -57t26 -61t10.5 -68.5q0 -31 -10.5 -58.5t-35.5 -47.5
q0 20 -5.5 36t-30.5 16q-17 0 -27 -10.5t-10 -27.5q0 -24 14 -33t32 -9q22 0 43 8t39.5 21.5t33 30.5t25.5 35q20 35 32.5 74.5t21.5 74.5q3 -24 4.5 -53t1.5 -61q0 -46 -3 -95t-8 -94.5t-12.5 -85.5t-16.5 -68q38 6 65.5 8.5t51.5 2.5q18 0 36.5 -1.5t40 -4t48.5 -4
t62 -1.5q44 0 85 14t72 40.5t49.5 63.5t18.5 84zM550 156q0 -10 -1.5 -29.5t-7.5 -39t-16.5 -34t-28.5 -14.5q-15 0 -26.5 13.5t-19 35t-11 48.5t-3.5 54q0 22 3 43t8.5 36.5t14 25t19.5 9.5q22 0 35.5 -17.5t21 -41.5t10 -49t2.5 -40z" />
    <glyph glyph-name="equal" unicode="&#x42b;" horiz-adv-x="782" 
d="M531 590q14 -92 21.5 -167t7.5 -144q0 -68 -7 -134.5t-22 -144.5q38 5 67 8t55 3t53.5 -3t64.5 -8q-14 78 -21.5 144.5t-7.5 134.5q0 69 7.5 144t21.5 167q-35 -6 -59.5 -9t-51.5 -3q-26 0 -56.5 2.5t-72.5 9.5zM531 203q0 36 -13.5 68.5t-37.5 57t-56 38.5t-69 14
q-35 0 -62 -13t-56 -30q-9 64 -9 104q0 37 7 69.5t24 78.5q-39 -6 -67.5 -9t-54.5 -3t-55 3t-67 9q14 -59 20 -124.5t6 -134.5q0 -88 -8 -173.5t-20 -157.5q32 5 56.5 7.5t47.5 2.5q21 0 40.5 -1.5t41.5 -3.5t47.5 -3.5t58.5 -1.5q44 0 84.5 14t72 40.5t50.5 64t19 84.5z
M335 157q0 -11 -1.5 -30.5t-7 -38.5t-16 -33.5t-28.5 -14.5q-15 0 -25.5 12t-17 31t-10 43.5t-3.5 50.5q0 24 1.5 47t5.5 40.5t12 28.5t21 11q22 0 35.5 -17.5t21 -41.5t10 -48.5t2.5 -39.5z" />
    <glyph glyph-name="greater" unicode="&#x42c;" horiz-adv-x="534" 
d="M126 574q-58 0 -118 16q12 -66 18 -147t6 -164q0 -78 -6 -150t-16 -129q36 6 65 8t53 2q21 0 40 -1.5t39 -3.5t42.5 -3.5t50.5 -1.5q46 0 87 14t71.5 41t48 66t17.5 89q0 40 -14.5 72.5t-38.5 55.5t-56 35.5t-66 12.5q-29 0 -58.5 -9.5t-56.5 -30.5q-1 12 -1 23v23
q0 46 7 91t24 107q-34 -7 -68.5 -11.5t-69.5 -4.5zM221 207q0 16 0.5 34.5t4.5 34t12.5 26t24.5 10.5q17 0 30 -14.5t21.5 -36t13 -47t4.5 -47.5q0 -18 -1.5 -38.5t-6 -38.5t-14.5 -29.5t-26 -11.5q-24 0 -36.5 17t-18.5 41t-7 51.5t-1 48.5z" />
    <glyph glyph-name="question" unicode="&#x42d;" horiz-adv-x="597" 
d="M587 297q0 62 -24 115.5t-64.5 93t-95.5 62t-116 22.5q-40 -3 -76 -7.5t-72 -4.5q-22 0 -45 2.5t-47 9.5q16 -33 16 -74q0 -23 -4.5 -46.5t-12 -46t-17.5 -42.5t-20 -36q38 7 67.5 24t53.5 41.5t43 55t35 65.5q7 11 16.5 15.5t20.5 4.5q32 0 53 -22.5t34 -53.5
t18.5 -63.5t6.5 -51.5q0 -8 -1.5 -20.5t-11.5 -17.5q-20 0 -36 8.5t-31 18t-31 18t-35 8.5q-24 0 -48.5 -6.5t-47 -18.5t-41.5 -28t-32 -35q13 0 24.5 4.5t25.5 4.5q22 0 43 -9t41.5 -19.5t41 -19.5t42.5 -9q26 0 47 11.5t43 26.5q0 -33 -6 -72t-21.5 -72t-43 -55.5
t-69.5 -22.5q-6 0 -18.5 1.5t-25 4.5t-22 7.5t-9.5 10.5q5 -1 15 -1q38 0 65.5 18.5t27.5 50.5q0 36 -26.5 60.5t-62.5 24.5q-16 0 -33 -6t-30.5 -17t-22 -26t-8.5 -32q0 -39 24 -67.5t59.5 -47t75.5 -27.5t72 -9q63 0 117 22t93.5 61.5t62.5 94t23 119.5z" />
    <glyph glyph-name="at" unicode="&#x42e;" horiz-adv-x="938" 
d="M143 576q-28 0 -59 3.5t-73 10.5l10.5 -93.5t7.5 -76t4.5 -64.5t1.5 -59q0 -30 -1.5 -60t-4.5 -65.5t-7.5 -77.5l-10.5 -94q64 14 125 14q60 0 122 -14q-11 54 -16.5 97t-8 77.5t-3 62t-0.5 48.5h25q7 -72 34 -125.5t70 -89t101.5 -53t128.5 -17.5q66 0 127 20t107.5 58
t74 93t27.5 125t-28 124.5t-74.5 92t-107 57.5t-126.5 20q-64 0 -119.5 -16.5t-99 -49t-73.5 -82t-42 -115.5q-6 0 -9 -0.5t-7 -0.5q-5 0 -9 1q1 25 1.5 51t2.5 56.5t7.5 68t16.5 87.5q-33 -7 -60 -10.5t-55 -3.5zM589 24q-23 0 -39.5 15.5t-28 40.5t-18.5 56.5t-11 62
t-5 57.5t-1 44q0 48 3 94t13.5 82.5t30.5 59t55 22.5q31 0 50 -22.5t29.5 -59t14 -83t3.5 -93.5q0 -32 -3.5 -79t-13.5 -91t-29 -75t-50 -31z" />
    <glyph glyph-name="A" unicode="&#x42f;" 
d="M423 254q4 -24 6 -43t2 -39q0 -32 -7 -70.5t-24 -101.5q47 6 78 9t58 3q28 0 57.5 -3t71.5 -9l-18 97t-13 82.5t-8 72t-3 65.5q0 60 10 120t33 137q-41 -8 -70.5 -11.5t-53.5 -3.5q-27 0 -57.5 5l-61.5 10.5t-62.5 10.5t-60.5 5q-36 0 -72 -7t-64.5 -24.5t-46 -46
t-17.5 -71.5q0 -49 19.5 -79t51.5 -47t72.5 -26t81.5 -16q-37 -17 -62.5 -33t-45 -33t-35.5 -37t-34 -45q-6 -8 -13 -19t-16 -21t-19.5 -17t-22.5 -7q-4 0 -14.5 3t-10.5 11q18 2 35.5 12t17.5 33q0 18 -12 30t-30 12q-26 -5 -39 -24t-13 -42q0 -27 14.5 -45.5t36 -29.5
t46.5 -16t46 -5q35 0 63.5 6.5t52.5 24.5q22 16 38.5 39t24.5 52q7 23 17.5 53t27.5 52q19 24 45 27zM318 431q0 19 3 40.5t10.5 40t19.5 30.5t29 12q19 0 29 -22.5t15 -52.5t6 -59t1 -41q0 -42 -4.5 -63.5t-20.5 -21.5q-22 0 -38.5 14.5t-27.5 35.5t-16.5 45t-5.5 42z" />
    <glyph glyph-name="dollar" unicode="&#x413;" horiz-adv-x="437" 
d="M18 165q0 -37 16 -67.5t42.5 -52t60 -33.5t67.5 -12q21 0 39.5 3.5t38 8t41 8t47.5 3.5q20 0 44 -3q-1 5 -3.5 32t-5.5 70q-2 29 -2 62t-3 71q-9 -30 -25.5 -67t-39 -70t-50 -55t-59.5 -22t-46.5 19t-14.5 44q0 24 13 47t38 31l70 44t68.5 50.5t52 62.5t20.5 80
q0 46 -20.5 78.5t-52.5 53t-73 30t-81 9.5q-26 0 -58.5 -5.5t-62 -18.5t-49.5 -34.5t-20 -53.5q0 -20 8 -34t21.5 -24t30.5 -14.5t35 -4.5q16 0 32.5 6t30 16.5t22 25t8.5 31.5q0 19 -8.5 31.5t-20.5 19.5t-25 11l-22 7q28 13 57 13q33 0 60 -16.5t29 -51.5q-6 -40 -27 -68
t-49 -50.5t-59.5 -42.5t-57 -43.5t-42 -53t-15.5 -71.5z" />
    <glyph glyph-name="FL0430h" unicode="&#x430;" horiz-adv-x="523" 
d="M161 541q13 6 30 6q19 0 35.5 -7t27.5 -18q14 -14 22.5 -33t13 -40.5t6 -44t1.5 -42.5t-6 -27t-17 -7q-14 0 -33.5 7t-40.5 7q-37 0 -71.5 -14t-60.5 -38t-42 -57.5t-16 -72.5q0 -33 11.5 -62.5t32.5 -51t49.5 -34t62.5 -12.5q50 0 88.5 19t55.5 38q4 -7 4 -15
q0 -9 -2.5 -19t-4.5 -23q25 4 50 6.5t49 2.5q26 0 50.5 -2.5t50.5 -6.5l-11.5 48t-6.5 50t2.5 47.5l5 51.5l5 50t2.5 43q0 62 -14 117t-45.5 95.5t-81.5 64t-122 23.5q-30 0 -65 -9.5t-64 -28t-48.5 -45.5t-19.5 -62q0 -38 26.5 -59t61.5 -21q19 0 36 7t30 19t20.5 28.5
t7.5 35.5q0 34 -19 53t-46 33zM203 179q0 13 3 33t10 39t18.5 33t29.5 14q15 0 23.5 -10t13 -24t6 -29t1.5 -25q0 -11 -1.5 -31t-7.5 -39.5t-16.5 -34t-28.5 -14.5q-15 0 -25 9.5t-16 23t-8 28.5t-2 27z" />
    <glyph glyph-name="FL0431h" unicode="&#x431;" horiz-adv-x="614" 
d="M536 210q0 52 -22 93.5t-58.5 70t-83.5 43.5t-97 15q-37 0 -66 -6t-54.5 -17t-50 -27.5t-51.5 -38.5q-5 0 -7 5t-3.5 11.5t-1.5 12.5v11q0 20 8 37t22 29t31.5 18.5t37.5 6.5q45 0 98.5 -10t106.5 -10q22 0 42.5 2.5t39.5 10.5q37 13 66 48q-4 23 -5.5 36.5t-1.5 22.5
q0 13 3 21.5l8 23.5t8.5 34t3.5 37q0 26 -12.5 45.5t-49.5 19.5q-19 0 -33 -12.5t-14 -32.5q0 -14 11 -21t23 -7q9 0 15 4.5t10 10l7 10t7 4.5q8 0 11 -6.5t3 -12.5q0 -25 -21 -37t-43 -12q-26 0 -51 6t-49.5 12.5t-50 12.5t-51.5 6q-55 0 -98 -19.5t-72 -54.5
q-27 -34 -34.5 -71.5t-7.5 -77.5v-160q0 -39 0.5 -65.5t2 -44.5t5 -30t8.5 -23q15 -32 42 -57t61 -42t71.5 -26t75.5 -9q49 0 95.5 11.5t83.5 36.5t59.5 65t22.5 97zM275 36q-16 0 -27.5 14.5t-19 38.5t-11.5 55t-4 64q0 34 4 66.5t11.5 58t19.5 41.5t27 16q13 0 23.5 -15
t17 -39t10 -55t3.5 -64q0 -34 -3.5 -66.5t-10.5 -58t-17 -41t-23 -15.5z" />
    <glyph glyph-name="FL0432h" unicode="&#x432;" horiz-adv-x="557" 
d="M547 167q0 42 -13.5 67t-37.5 40t-56.5 23t-69.5 15l-27 5q34 9 62.5 21.5t49.5 30t33 41.5t12 57q0 30 -11 52.5t-30 38.5t-44.5 24t-53.5 8q-69 -3 -124.5 -6.5t-92.5 -3.5q-18 0 -32.5 1t-29 2.5t-31 3l-38.5 3.5q8 -32 12.5 -70.5t7 -80t3 -82t0.5 -74.5
q0 -71 -5.5 -142t-17.5 -141q33 5 64.5 7.5t64.5 2.5q39 0 82 -2.5t94 -7.5q41 0 82 7.5t73.5 26t53 51t20.5 82.5zM273 39q-9 0 -17 6t-14 15t-10.5 18.5t-5.5 17.5q-1 4 -2.5 16t-3 28.5t-3 35.5t-1.5 37q0 32 5.5 56.5t20.5 24.5q24 0 41 -18.5t28.5 -44.5t16.5 -53
t5 -45q0 -12 -3.5 -28t-11 -30.5t-19 -25t-26.5 -10.5zM285 544q23 0 34 -19.5t11 -40.5q0 -17 -4 -43.5t-15 -51.5t-29.5 -42.5t-46.5 -16.5q-8 0 -10.5 15.5t-2.5 33.5q0 11 0.5 21.5t1 17.5t1 8.5t-0.5 -4.5q0 13 2.5 33.5t9 40t18.5 34t31 14.5z" />
    <glyph glyph-name="FL0433h" unicode="&#x433;" horiz-adv-x="437" 
d="M18 165q0 -37 16 -67.5t42.5 -52t60 -33.5t67.5 -12q21 0 39.5 3.5t38 8t41 8t47.5 3.5q20 0 44 -3q-1 5 -3.5 32t-5.5 70q-2 29 -2 62t-3 71q-9 -30 -25.5 -67t-39 -70t-50 -55t-59.5 -22t-46.5 19t-14.5 44q0 24 13 47t38 31l70 44t68.5 50.5t52 62.5t20.5 80
q0 46 -20.5 78.5t-52.5 53t-73 30t-81 9.5q-26 0 -58.5 -5.5t-62 -18.5t-49.5 -34.5t-20 -53.5q0 -20 8 -34t21.5 -24t30.5 -14.5t35 -4.5q16 0 32.5 6t30 16.5t22 25t8.5 31.5q0 19 -8.5 31.5t-20.5 19.5t-25 11l-22 7q28 13 57 13q33 0 60 -16.5t29 -51.5q-6 -40 -27 -68
t-49 -50.5t-59.5 -42.5t-57 -43.5t-42 -53t-15.5 -71.5z" />
    <glyph glyph-name="FL0434h" unicode="&#x434;" horiz-adv-x="570" 
d="M239 -213q35 0 72 17.5t74 39l71 40t63 21.5q13 1 17.5 28.5t4.5 67.5q0 35 -2.5 74.5t-5.5 74.5t-5.5 60.5t-2.5 33.5q0 35 2 75t5.5 79t7 74t7.5 61t7.5 40t5.5 11q-29 -10 -60 -14.5t-62 -4.5q-45 0 -92 11q-26 6 -49.5 10t-49.5 4q-51 0 -94.5 -18.5t-75 -51
t-49.5 -76t-18 -93.5q0 -61 34 -111t87 -76q24 -9 53.5 -16.5t58.5 -7.5q24 0 46 6.5t39 23.5q9 -67 13.5 -105.5t6.5 -58.5t2.5 -26.5t0.5 -8.5q0 -31 -8.5 -58.5t-25.5 -48t-42.5 -32.5t-58.5 -12q-16 0 -40.5 8t-48 22t-40 32.5t-16.5 39.5l5 -2.5t13.5 -6t20.5 -6.5
t26 -3q11 0 22.5 2.5t23.5 8.5q23 14 32.5 38t9.5 50q0 24 -8 46t-23 39t-36 27.5t-46 10.5q-23 0 -41 -11t-30 -28.5t-18.5 -38.5t-6.5 -42q0 -45 18.5 -85t49.5 -69.5t71.5 -47t84.5 -17.5zM285 193q-22 0 -35 20t-19.5 47t-8 54.5t-1.5 42.5q0 22 3 54t13.5 62t29 51
t50.5 21q4 0 9.5 -0.5t11 -2t9.5 -5t4 -9.5q-14 -71 -21.5 -139t-7.5 -137q-2 -33 -12 -46t-25 -13z" />
    <glyph glyph-name="FL0435h" unicode="&#x435;" horiz-adv-x="578" 
d="M10 281q0 -64 26 -116t70 -88.5t100.5 -56.5t118.5 -20q31 0 67.5 10.5t67 30.5t51 49.5t20.5 67.5q0 29 -18 52.5t-50 23.5q-29 0 -48.5 -21t-19.5 -50q0 -52 60 -52q2 -4 2 -12q0 -12 -8.5 -22t-20.5 -16.5t-26 -10.5t-25 -4q-42 0 -68.5 23t-42.5 57.5t-22 74t-6 71.5
q32 -10 66 -16.5t68 -6.5q32 0 66.5 9.5t63.5 28t47.5 46t18.5 63.5q0 46 -22.5 82t-57.5 61t-78 38t-85 13q-69 0 -127 -22t-100 -62t-65 -97.5t-23 -127.5zM237 315q-1 9 -1 17v16q0 19 1.5 37.5t6.5 41.5q2 10 9.5 32t19 43.5t25.5 38t29 16.5q17 0 26 -14.5t13.5 -34
t5 -39t0.5 -29.5q0 -20 -2.5 -44.5t-11 -47t-25 -37.5t-43.5 -15q-13 0 -29 4t-24 15z" />
    <glyph glyph-name="FL0436h" unicode="&#x436;" horiz-adv-x="948" 
d="M291 328q-43 0 -83 -15t-76 -38q-34 -21 -57.5 -52.5t-38 -68t-21 -76t-6.5 -77.5q36 11 64.5 16t55.5 5t57 -5.5t69 -16.5q-5 25 -8.5 49.5t-3.5 47.5q0 48 17 88.5t61 66.5q9 5 18 9t17 4q18 0 26 -18v-22q0 -58 -10 -113.5t-27 -111.5q66 21 132 21q64 0 127 -21
q-11 57 -19 113.5t-8 113.5v22q6 14 22 14t30 -9q45 -26 62.5 -67t17.5 -89q0 -24 -4 -48.5t-9 -47.5q42 10 70.5 14.5t52.5 4.5q26 0 52.5 -5t64.5 -16q4 18 6 34.5t2 33.5q0 70 -31.5 123t-85.5 86q-37 23 -81 35t-93 12q-10 0 -19.5 -0.5t-19.5 -1.5q-1 5 -1.5 8.5
t-0.5 8.5q0 23 10 46t24 43q7 10 17.5 21t22 20t23 15t22.5 6q-12 -23 -12 -44q0 -18 7.5 -35t21 -30t32 -20.5t39.5 -7.5q45 0 66 30.5t21 69.5q0 22 -6 43.5t-18 39.5t-29 30t-38 14q-5 1 -10 1h-9q-45 0 -87.5 -22t-68.5 -54q-20 -24 -34 -53t-23 -60q4 67 11.5 135
t29.5 134q3 7 7.5 16t11.5 17t14.5 13.5t16.5 5.5q7 0 15 -6q-11 -5 -19.5 -13.5t-8.5 -19.5t7 -20t23 -9q21 0 32 14.5t11 34.5q0 22 -13.5 37t-33.5 23q-5 1 -9 1h-8q-21 0 -39 -8t-34.5 -19.5t-32 -24t-33.5 -22.5q-65 -34 -134 -34q-20 0 -41 3q0 1 -1 1v0v-1
q0 -5 4 -26t8.5 -55t8.5 -78.5t4 -95.5q-14 28 -24.5 58t-30.5 55q-23 31 -60 51.5t-75 20.5q-6 1 -12 1.5t-11 0.5q-27 0 -48 -11.5t-35.5 -29.5t-22 -41t-7.5 -46q0 -38 22 -67.5t72 -33.5q21 0 38 7.5t29.5 20.5t19 30t6.5 36q0 25 -12 49q26 -8 47.5 -30t35.5 -46
q14 -22 22 -46t8 -49z" />
    <glyph glyph-name="FL0437h" unicode="&#x437;" horiz-adv-x="552" 
d="M325 310q36 4 71 13t62 26.5t43.5 43.5t16.5 64q0 46 -27.5 72.5t-66.5 40t-83 17t-77 3.5q-29 0 -67 -4.5t-72 -18t-57.5 -38t-23.5 -64.5q0 -19 8.5 -35.5t22 -28.5t31 -19t36.5 -7q18 0 36 6.5t33 18t24 28t9 36.5q-6 34 -23 52.5t-57 24.5q22 7 47 7q45 0 76 -26.5
t31 -73.5q0 -27 -11 -49t-30 -37.5t-45 -24.5t-56 -9q-24 0 -48.5 4.5t-47.5 14.5q5 -12 7.5 -20.5t2.5 -16.5t-2.5 -16.5t-7.5 -22.5q36 15 79 15q30 0 59 -8t51.5 -24.5t36.5 -41.5t14 -59q0 -28 -11 -50.5t-29 -38.5t-41 -24.5t-48 -8.5q-39 0 -72 21q28 0 51 8
t39.5 20.5t25.5 29.5t9 37q0 17 -8 34.5t-23 31.5t-36.5 23t-49.5 9q-23 0 -43.5 -8.5t-37 -22.5t-26.5 -32t-10 -38q6 -49 31 -77.5t61 -43.5t79.5 -19t85.5 -4q37 0 85 4t90 19.5t71 46t29 82.5q0 41 -21 69t-53 46t-70 28t-73 15z" />
    <glyph glyph-name="FL0438h" unicode="&#x438;" horiz-adv-x="724" 
d="M367 180q8 -35 19.5 -67.5t30 -57.5t45 -40t63.5 -15q34 0 67 7t59.5 22.5t43 40t16.5 59.5q0 31 -15 55.5t-50 24.5q-22 0 -39.5 -15.5t-17.5 -38.5t15.5 -37t35.5 -14q8 0 16.5 2.5t16.5 9.5q0 -20 -10.5 -36t-33.5 -16q-26 0 -41 15.5t-22.5 38t-9 47t-1.5 42.5
q0 56 5.5 112t13.5 112q5 39 15 80t18 79q-33 -7 -65.5 -10.5t-66.5 -3.5q-33 0 -66 3.5t-67 10.5q5 -21 8 -46t5 -51.5t3 -51.5t1 -45q0 -31 -1.5 -69.5t-7.5 -72.5t-17.5 -57t-32.5 -23q-15 0 -25 9.5t-15.5 25t-8 35.5t-2.5 42q0 20 1.5 40t3.5 37.5t4 31l3 20.5l15 88
t24 87q-38 -7 -74.5 -10.5t-73.5 -3.5q-36 0 -71.5 3.5t-71.5 10.5q23 -40 30.5 -85.5t7.5 -93.5q-1 -56 -10 -110.5t-9 -108.5q0 -32 8.5 -66t25.5 -62t44 -46t65 -18t68 16.5t53.5 43t41.5 58.5t33 62z" />
    <glyph glyph-name="FL0439h" unicode="&#x439;" horiz-adv-x="724" 
d="M367 180q8 -35 19.5 -67.5t30 -57.5t45 -40t63.5 -15q34 0 67 7t59.5 22.5t43 40t16.5 59.5q0 31 -15 55.5t-50 24.5q-22 0 -39.5 -15.5t-17.5 -38.5t15.5 -37t35.5 -14q8 0 16.5 2.5t16.5 9.5q0 -20 -10.5 -36t-33.5 -16q-26 0 -41 15.5t-22.5 38t-9 47t-1.5 42.5
q0 56 5.5 112t13.5 112q5 39 15 80t18 79q-33 -7 -65.5 -10.5t-66.5 -3.5q-33 0 -66 3.5t-67 10.5q5 -21 8 -46t5 -51.5t3 -51.5t1 -45q0 -31 -1.5 -69.5t-7.5 -72.5t-17.5 -57t-32.5 -23q-15 0 -25 9.5t-15.5 25t-8 35.5t-2.5 42q0 20 1.5 40t3.5 37.5t4 31l3 20.5l15 88
t24 87q-36 -7 -72 -10.5t-72 -3.5q-71 0 -147 14q23 -40 30.5 -85.5t7.5 -93.5q-1 -56 -10 -110.5t-9 -108.5q0 -32 8.5 -66t25.5 -62t44 -46t65 -18t68 16.5t53.5 43t41.5 58.5t33 62zM218 807q-54 -2 -81.5 -24.5t-30.5 -51.5q0 -32 18 -55t48 -38t69 -22.5t81 -7.5h4
q47 1 93 10.5t82.5 27.5t59 45t22.5 62q0 40 -30.5 60t-74.5 20q-38 0 -71 -16t-43 -46q18 12 39 12q17 0 29.5 -10t12.5 -33q0 -27 -14 -44.5t-35 -27.5t-45.5 -14t-45.5 -4q-20 0 -39 1.5t-35 11.5q13 0 30 4t32.5 12t27 22t12.5 34q0 18 -8.5 31.5t-23 22.5t-33.5 13.5
t-40 4.5h-10z" />
    <glyph glyph-name="FL043Ah" unicode="&#x43a;" horiz-adv-x="629" 
d="M268 328q1 19 13 49t31 58t41.5 48t44.5 20q-13 -22 -13 -50q0 -18 6 -35.5t17 -31t28 -21.5t38 -8q24 0 42.5 10.5t32 27.5t20.5 38.5t7 43.5q0 58 -34.5 85.5t-88.5 27.5q-44 0 -77.5 -19.5t-59 -50t-43.5 -67t-30 -70.5q-1 29 -3.5 63.5t-2.5 69.5q0 32 3.5 64t14 60
t29 51t48.5 38q-6 -14 -6 -24q0 -17 12.5 -26.5t27.5 -9.5q20 0 30 12t10 31q0 30 -14.5 45t-36.5 18q-5 1 -14 1q-21 0 -40.5 -8t-38.5 -19.5t-37.5 -24.5t-37.5 -23q-45 -29 -86.5 -39t-90.5 -14q16 -86 22.5 -172.5t6.5 -173.5q0 -77 -4 -152t-11 -150q36 7 67 10.5
t60 3.5q28 0 56.5 -3t60.5 -11l-18 114t-10 117q5 23 12.5 29.5t16.5 6.5q13 0 26 -6t22 -13q32 -29 42.5 -64t10.5 -74q0 -26 -3 -54l-6 -56q35 8 64 11t58 3q30 0 62 -3.5t71 -10.5q1 6 1 11v12q0 60 -20 117t-56 101t-86 71t-110 27q-19 0 -38 -2.5t-39 -8.5z" />
    <glyph glyph-name="FL043Bh" unicode="&#x43b;" horiz-adv-x="653" 
d="M643 590q-82 -5 -146.5 -7.5t-127.5 -2.5q-34 0 -68 0.5t-71 2t-77.5 3.5t-86.5 4q75 -48 118 -123.5t56 -168.5q2 -14 3 -31t1 -36q0 -24 -3 -49.5t-10 -48.5t-19 -42t-30 -30q23 34 23 69q0 22 -8.5 38t-22 27t-30.5 16.5t-35 5.5q-25 0 -44 -9.5t-31.5 -25t-19 -35
t-6.5 -40.5q0 -51 31 -79t74 -28q48 0 88 25t71 63q33 40 56.5 92t39.5 106t23.5 105.5t7.5 91.5q11 -51 15 -109t4 -115q-1 -67 -6 -130.5t-21 -127.5q38 5 68.5 8t57.5 3q29 0 56.5 -3t60.5 -9q-5 78 -8 134.5t-3 110.5q0 34 1 70t3.5 77t6.5 89.5z" />
    <glyph glyph-name="FL043Ch" unicode="&#x43c;" horiz-adv-x="840" 
d="M489 290l-21 91.5l-16.5 73l-14.5 65.5l-16 71q-44 -9 -76 -9q-31 0 -64 9q-29 5 -59 15.5t-61 15.5q-15 0 -30 -3.5t-27 -11t-20 -19.5t-8 -29q0 -21 12 -37.5t34 -16.5q20 0 32 13t12 33q0 3 -4 12.5t-4 15.5q0 4 3 4q6 0 16.5 -4.5t20 -11t17 -14.5t7.5 -15
q-46 -38 -85 -83.5t-67 -96.5t-44 -106.5t-16 -113.5q0 -70 25 -138q28 7 52.5 10.5t48.5 3.5t50 -3.5t58 -10.5q-14 57 -20 115t-6 118q0 68 7 134.5t20 130.5q32 -124 45.5 -249l26.5 -249q29 6 48.5 9.5t37.5 3.5q17 0 35.5 -3.5l46.5 -8.5q2 0 3.5 -0.5t3.5 -0.5
q7 62 15 119.5t19 115t27 117.5t39 127q8 -53 11 -104.5t3 -103.5q0 -69 -4.5 -136t-11.5 -135q65 14 125 14q28 0 55 -3t53 -11q-9 85 -15.5 167.5t-6.5 166.5q0 63 4.5 126.5t15.5 129.5q-51 -12 -109 -12q-32 0 -64 3.5t-62 8.5l-25 -79l-24 -72l-23.5 -71z" />
    <glyph glyph-name="FL043Dh" unicode="&#x43d;" horiz-adv-x="658" 
d="M262 590q-41 -5 -71.5 -8t-59.5 -3q-26 0 -53 2.5t-59 8.5q12 -63 17.5 -126.5t5.5 -127.5q0 -85 -7 -168.5t-16 -167.5q64 9 122 9q55 0 115 -9q-3 17 -6 43t-5 55.5t-3 61t-1 59.5q0 26 1 46.5t3 34.5q23 -7 41 -13t43 -6q20 0 40 5.5t38 13.5q0 -66 -0.5 -114.5
t-2.5 -84t-5.5 -60t-9.5 -41.5q35 5 67 7.5t64 2.5q58 0 111 -10q-24 142 -24 289q0 76 7 151t23 150q-34 -6 -63 -9t-58 -3q-56 0 -122 12q8 -38 11.5 -80.5t3.5 -84.5v-36t-2 -34q-19 4 -40 12.5t-42 8.5q-20 0 -40.5 -7.5t-40.5 -12.5q0 25 1 56t3 62.5t5.5 61.5t8.5 54z
" />
    <glyph glyph-name="FL043Eh" unicode="&#x43e;" 
d="M341 0q64 0 125 18.5t107.5 56t75 93.5t28.5 130q0 76 -28.5 131t-75.5 91t-107.5 53t-124.5 17q-65 0 -124.5 -17t-105.5 -53t-73 -91t-27 -131q0 -72 27 -127.5t73 -93.5t105.5 -57.5t124.5 -19.5zM341 555q21 0 37.5 -23t27 -60t16 -84t5.5 -96q0 -48 -5.5 -94.5
t-16 -83t-26 -58.5t-36.5 -22q-22 0 -38 22.5t-26.5 59t-16 83.5t-5.5 96t5 95.5t15.5 83t26.5 59t37 22.5z" />
    <glyph glyph-name="FL043Fh" unicode="&#x43f;" horiz-adv-x="706" 
d="M359 598q-24 6 -43 10t-35.5 7t-32 4.5t-32.5 1.5q-22 0 -57 -6t-68 -19.5t-57 -35t-24 -51.5q0 -22 14.5 -38.5t37.5 -16.5q20 0 36 15t16 35q0 23 -10 33t-28 18q10 11 23 11q14 0 23.5 -10t16.5 -27q14 -34 16.5 -77.5t2.5 -79.5q0 -91 -11 -185t-29 -187q31 5 61 8.5
t61 3.5t62 -3.5t62 -8.5q-16 75 -23 157t-7 165q0 9 0.5 39t2 66t5 70.5t9.5 52.5q13 -8 20 -16.5t22 -8.5q7 0 18 3t21 7q6 0 9 -13.5t5 -31t3 -33.5t1 -20q3 -54 3 -112q0 -82 -5.5 -165t-16.5 -160q70 12 125 12q29 0 57.5 -3t62.5 -9q-17 69 -25 139t-8 141
q0 170 47 328q-39 -16 -78.5 -25.5t-81.5 -9.5q-43 0 -86 8t-85 17z" />
    <glyph glyph-name="FL0440h" unicode="&#x440;" horiz-adv-x="579" 
d="M11 -222q39 8 69.5 12t59.5 4q30 0 62.5 -4t77.5 -12q-7 34 -14 82t-13 98.5t-9.5 98t-3.5 81.5q30 -24 60.5 -36t69.5 -12q47 0 84 21t62.5 55t38.5 76.5t13 85.5t-12.5 86.5t-36.5 78.5t-60 59t-83 28q-20 0 -38.5 -6.5t-35.5 -16.5t-32.5 -23l-29.5 -25q0 3 -0.5 8.5
t-0.5 13.5q0 23 2.5 60t10 71.5t21.5 59.5t37 25q13 0 13 -6t-7 -16.5t-7 -25.5q1 -20 12.5 -28.5t26.5 -8.5q18 0 34.5 12t16.5 38q0 17 -7.5 29.5t-20 21t-27.5 12.5t-30 4q-49 0 -91.5 -25t-83.5 -55l-57.5 -40.5t-58.5 -30.5q14 -82 20 -166.5t6 -170.5q0 -130 -11 -259
t-27 -254zM229 331q0 27 3.5 58.5t12 57.5t22 43.5t33.5 17.5q15 0 27 -15t19.5 -40t11.5 -56.5t4 -64.5q0 -34 -4 -66t-11.5 -57.5t-19.5 -41t-27 -15.5q-20 0 -34 18.5t-22 45.5t-11.5 58t-3.5 57z" />
    <glyph glyph-name="FL0441h" unicode="&#x441;" horiz-adv-x="576" 
d="M10 291q0 -63 24 -116.5t65 -92.5t96 -60.5t117 -21.5q46 0 89.5 8t78.5 25.5t58 45.5t28 69q0 25 -16.5 43t-45.5 18q-20 0 -30.5 -15t-10.5 -33q0 -17 9.5 -30.5t29.5 -13.5q-10 -32 -38 -47t-61 -15q-46 0 -78 24t-52.5 61t-29.5 79.5t-9 80.5q0 22 3 49.5t10.5 55
t20 52.5t31.5 43q33 30 73 30q15 0 29.5 -5t28.5 -17q-12 3 -22 3q-23 0 -42 -10.5t-33 -28t-22 -39.5t-8 -45q0 -21 8 -40.5t22 -33.5t33 -22.5t41 -8.5q26 0 47.5 11t36.5 29.5t23.5 42t8.5 47.5q0 44 -22 77.5t-55.5 55.5t-74.5 33t-78 11q-57 0 -108 -24t-90 -64
t-62 -92t-23 -108v-11z" />
    <glyph glyph-name="FL0442h" unicode="&#x442;" horiz-adv-x="1102" 
d="M412 0q38 6 64 9.5t51 3.5q23 0 49 -3t65 -10q-9 54 -12.5 111t-3.5 116q0 78 5.5 156t12.5 151q22 -24 53 -24q21 0 38 13q3 -1 5 -15.5t3.5 -32.5t2 -34.5t0.5 -22.5q-6 -101 -11.5 -163t-5.5 -103q0 -35 2 -55.5t6 -35.5t9 -28.5t11 -32.5q12 16 26 23t27 7
q25 -3 46 -8t40 -10t38 -8.5t41 -3.5q23 0 44.5 7t37.5 20.5t25.5 33t9.5 45.5q0 23 -15.5 41.5t-38.5 18.5q-19 0 -34 -13.5t-15 -33.5q0 -23 14.5 -34.5t35.5 -13.5q1 0 1 -1v0q-20 -14 -37 -14q-21 0 -35 14.5t-22.5 39t-11.5 56.5t-3 66q0 33 2.5 65.5t5.5 60.5t6 49.5
t5 31.5q1 4 3.5 16.5l5.5 27l5.5 27.5l3.5 18t4 16.5l6.5 24.5l6.5 24.5t4 16.5q-59 -15 -122.5 -21.5t-126.5 -6.5q-40 0 -78 2.5t-73 5.5q-50 4 -83 8l-54 6.5t-32.5 4t-17.5 1.5q-10 1 -32.5 3.5t-47 4.5t-46.5 4t-31 2q-25 0 -51.5 -1.5t-52.5 -7t-50 -16t-43 -28.5
q-16 -15 -26.5 -31.5t-10.5 -38.5q0 -23 14 -36.5t34 -13.5t35 13.5t15 34.5q0 19 -9 29t-26 22q8 4 17 4q17 0 27 -13.5t15.5 -33.5t7 -44.5t1.5 -45.5q0 -107 -9.5 -207.5t-31.5 -209.5q31 5 58.5 9t53.5 4q29 0 58.5 -3.5t61.5 -9.5q-15 132 -15 269q0 86 3.5 160
t23.5 140q10 -15 21.5 -21.5t23.5 -6.5q10 0 19.5 4t17.5 10q7 -10 9.5 -44t2.5 -80q0 -42 -2 -90t-4.5 -96.5t-6 -93.5t-6.5 -79t-5 -53.5t-2 -18.5z" />
    <glyph glyph-name="FL0443h" unicode="&#x443;" horiz-adv-x="592" 
d="M228 -227q28 0 53 9t48.5 22.5t45.5 29t45 29.5q20 11 40 20t43 9l26 -3q5 0 9 14.5t6.5 33.5t4 37.5t1.5 25.5q0 31 -2.5 66t-6 71.5t-6 72.5t-2.5 69q0 73 16 154.5t36 156.5q-23 -9 -48.5 -13t-51.5 -4q-59 0 -115 17q-15 -60 -24 -124t-14 -127q0 -42 -5.5 -71.5
t-29.5 -29.5q-22 7 -36 22t-21.5 34.5t-10.5 40.5t-3 41q0 54 15.5 108.5l29.5 105.5q-19 -13 -38 -17.5t-39 -4.5q-34 0 -66.5 11t-66.5 11q-12 0 -25.5 -5l-24.5 -9q14 -23 22.5 -45.5t8.5 -50.5q0 -32 -5.5 -63t-5.5 -63q0 -38 12.5 -74.5t35.5 -66t55.5 -47.5t73.5 -18
q38 0 66 17l59 37q12 -45 18 -92t6 -94q0 -33 -5.5 -69.5t-20.5 -67.5t-41.5 -51.5t-68.5 -20.5q-9 0 -22.5 4t-26.5 10.5t-22.5 16t-9.5 20.5q15 -10 26 -13t28 -3q23 0 40 9.5t28.5 25t17 35.5t5.5 41q0 23 -9 44.5t-24.5 38t-36 26.5t-44.5 10q-26 0 -45.5 -13t-33 -32.5
t-20.5 -43.5t-7 -46q0 -33 13 -63t35 -52.5t51.5 -35.5t63.5 -13z" />
    <glyph glyph-name="FL0444h" unicode="&#x444;" horiz-adv-x="851" 
d="M840 324q0 42 -11.5 89t-35 86t-59 65t-84.5 26q-20 0 -38.5 -7t-35 -18t-31.5 -25t-29 -29q-1 9 -1.5 19t-0.5 21q0 28 3.5 57.5t12.5 56.5t24 48t37 32q0 -10 -5 -19.5t-5 -20.5q0 -23 12.5 -34t29.5 -11t32.5 12.5t15.5 38.5q0 34 -25 49.5t-55 15.5q-21 0 -42 -7
t-41 -16.5t-39.5 -20.5t-38.5 -19q-33 -14 -63.5 -17t-68.5 -3q9 -33 16 -73t7 -78q0 -8 -0.5 -15.5t-1.5 -15.5q-24 32 -50.5 55.5t-68.5 23.5q-46 0 -81.5 -23t-60 -58.5t-37 -78.5t-12.5 -84q0 -44 13.5 -90.5t39.5 -84.5t64.5 -62t88.5 -24q34 0 61 7.5t51 31.5
q2 -23 3.5 -45.5t1.5 -46.5q0 -43 -5.5 -96.5t-19.5 -135.5q35 7 67 10t63 3q61 0 119 -13q-11 50 -18 89.5t-11.5 71.5t-6.5 58.5t-2 51.5q0 13 0.5 26t1.5 27q28 -23 60 -30t67 -7q48 0 84 21t60.5 55t36.5 76.5t12 84.5zM273 500q19 0 30.5 -18t17.5 -45t8 -58.5t2 -58.5
q0 -24 -2 -55t-8.5 -59t-18 -47.5t-29.5 -19.5q-23 0 -35.5 18t-19.5 45t-8.5 58.5t-1.5 59.5q0 23 1.5 54t8.5 58.5t19.5 47t35.5 20.5zM577 501q19 0 30.5 -18t17.5 -45t8 -58.5t2 -58.5q0 -24 -2.5 -55t-9 -59.5t-18 -48t-29.5 -19.5q-23 0 -35.5 18t-19 45t-8 59
t-1.5 60q0 23 1.5 54t8.5 58.5t19.5 47t35.5 20.5z" />
    <glyph glyph-name="FL0445h" unicode="&#x445;" horiz-adv-x="682" 
d="M400 0q47 8 81.5 11.5t61.5 3.5t55 -5t69 -10q0 56 -18.5 109.5t-51.5 98t-79 75.5t-101 42q109 23 167.5 88t58.5 177q-42 -8 -71.5 -11t-57.5 -3t-56 3t-73 11q11 -14 15.5 -45.5t4.5 -69.5q0 -21 -3 -42.5t-10 -38.5t-18.5 -27.5t-28.5 -10.5q-20 0 -33 10.5t-20.5 27
t-10.5 38t-3 44.5q0 35 4.5 66.5t8.5 47.5q-38 -6 -67 -9t-57 -3t-58.5 2.5t-72.5 7.5q0 -47 17.5 -92t48 -81t71.5 -60t88 -30q-51 -13 -96 -41.5t-79.5 -70.5t-54.5 -95.5t-20 -117.5q42 6 73.5 9.5t62.5 3.5q55 0 126 -13q-2 32 -5.5 62t-3.5 59q0 19 4 45.5t13.5 51.5
t25 44t38.5 24q22 -8 35.5 -29t21 -46.5t10 -52t2.5 -45.5q0 -26 -5 -53.5t-9 -59.5z" />
    <glyph glyph-name="FL0446h" unicode="&#x446;" horiz-adv-x="756" 
d="M441 -145q0 -27 16 -45t39.5 -28.5t50 -15t47.5 -4.5q59 0 90 25.5t45 65.5q13 38 15.5 82.5t2.5 87.5v18q-27 1 -48 1h-37h-75q-2 45 -4.5 83.5t-2.5 74.5q0 59 1 109.5t4.5 97t9.5 91.5t16 92q-35 -9 -61.5 -13t-57.5 -4t-61.5 4t-63.5 13q3 -14 7.5 -60t8.5 -107.5
t7 -129.5t3 -125q0 -39 -0.5 -74t-4.5 -52q-27 11 -45.5 16.5t-35.5 5.5t-35.5 -5.5t-45.5 -16.5q-5 48 -8 95.5t-3 95.5q0 91 9.5 180t26.5 177q-34 -8 -63.5 -12.5t-58.5 -4.5t-57.5 4.5t-60.5 12.5q10 -57 15 -133t5 -157q0 -92 -6 -175.5t-16 -137.5q3 1 14.5 3t26 4
l29.5 4t24 2h382q44 0 81 -7t63.5 -21.5t41.5 -36.5t15 -52t-16.5 -55t-50.5 -25q-7 0 -11 1q23 11 35.5 33.5t12.5 39.5q0 28 -24.5 48t-66.5 20q-19 0 -41 -5.5t-40.5 -16.5t-30.5 -28t-12 -40z" />
    </font>
</defs>
</svg>
